<?xml version="1.0" standalone="no"?>
<!DOCTYPE svg PUBLIC "-//W3C//DTD SVG 20010904//EN"
 "http://www.w3.org/TR/2001/REC-SVG-20010904/DTD/svg10.dtd">
<svg version="1.0" xmlns="http://www.w3.org/2000/svg"
 width="720.000000pt" height="720.000000pt" viewBox="0 0 720.000000 720.000000"
 preserveAspectRatio="xMidYMid meet">

<g transform="translate(0.000000,720.000000) scale(0.100000,-0.100000)"
fill="#000000" stroke="none">
<path d="M0 6793 l0 -408 98 -52 c53 -29 126 -69 162 -89 36 -20 121 -67 190
-104 69 -38 170 -94 225 -124 55 -31 103 -56 106 -56 17 0 21 -62 30 -470 9
-437 27 -801 55 -1135 8 -99 17 -291 21 -426 5 -206 4 -246 -8 -251 -13 -4
-223 6 -624 31 -99 7 -197 13 -217 15 l-38 4 0 -1864 0 -1864 3600 0 3600 0 0
3385 0 3385 -31 0 c-17 0 -72 -4 -122 -10 -435 -46 -601 -61 -969 -91 -137
-11 -148 -10 -172 7 -14 11 -29 31 -34 45 -10 27 -8 350 3 398 6 26 11 29 63
35 31 4 104 9 162 11 145 5 243 15 255 26 5 5 -1238 9 -3173 9 l-3182 0 0
-407z m5815 340 c4 -10 10 -106 12 -213 l5 -195 -40 -42 -40 -41 -143 -11
c-79 -6 -189 -16 -244 -21 -180 -19 -472 -45 -930 -85 -99 -9 -252 -22 -340
-30 -215 -19 -409 -27 -370 -15 24 7 16 8 -38 7 -37 -1 -67 1 -67 4 0 3 -46 5
-102 4 -148 -1 -289 24 -330 58 -31 26 -113 139 -301 416 -36 52 -46 81 -28
81 5 0 19 -15 30 -33 11 -18 29 -44 40 -57 30 -36 31 -38 91 -122 58 -82 74
-95 96 -78 9 9 15 6 24 -11 9 -17 9 -23 0 -29 -8 -5 -9 -10 -2 -14 6 -4 9 -13
5 -21 -3 -10 1 -15 12 -15 12 0 15 5 10 20 -4 14 -2 20 8 20 8 0 17 -9 20 -19
3 -13 18 -21 48 -26 62 -11 421 -5 499 8 14 3 31 5 39 6 13 1 12 16 -6 76 -6
20 -5 20 16 1 12 -11 28 -40 35 -65 10 -34 16 -42 21 -29 4 10 0 27 -9 40 -9
12 -16 30 -16 39 0 9 -13 36 -30 60 -36 54 -37 61 -5 53 19 -5 32 1 55 23 44
43 244 108 301 96 25 -5 234 18 339 37 30 6 106 14 169 19 66 6 117 14 121 21
4 7 49 13 116 15 112 4 181 13 199 24 6 3 37 6 70 7 99 0 406 23 460 34 28 5
59 12 70 14 11 2 43 4 71 5 41 1 53 -3 59 -16z m-3000 -13 c3 -5 1 -10 -4 -10
-6 0 -11 5 -11 10 0 6 2 10 4 10 3 0 8 -4 11 -10z m35 -52 c0 -5 -7 -8 -15 -8
-8 0 -15 2 -15 4 0 2 -3 12 -6 21 -6 15 -4 15 15 4 11 -8 21 -17 21 -21z m477
-574 c-3 -3 -12 -4 -19 -1 -8 3 -5 6 6 6 11 1 17 -2 13 -5z m1560 -1384 l7
-75 7 60 c4 33 8 89 9 125 l3 65 7 -50 c5 -27 9 -78 9 -113 1 -46 4 -62 14
-59 6 2 11 16 9 31 -2 16 1 25 6 22 6 -3 10 0 9 7 -2 51 4 77 18 77 11 0 15
-12 15 -50 0 -38 -4 -50 -15 -50 -8 0 -15 -4 -15 -10 0 -5 7 -10 15 -10 8 0
15 -7 15 -16 0 -9 11 -27 24 -39 24 -22 25 -23 42 -4 16 18 16 19 -4 19 -18 0
-22 6 -22 35 0 41 7 45 20 10 5 -14 16 -25 25 -25 8 0 15 -4 15 -10 0 -5 5
-10 10 -10 6 0 10 7 10 16 0 9 6 14 13 11 7 -2 11 -17 9 -36 -2 -21 1 -31 9
-29 7 2 16 -8 20 -22 4 -14 8 -18 8 -10 1 9 4 11 9 5 4 -5 16 -11 27 -13 11
-2 26 -11 32 -19 11 -15 13 -15 19 0 8 22 20 21 26 -1 4 -14 14 -18 41 -18 29
1 38 -3 47 -22 10 -23 12 -23 29 -8 29 26 57 20 74 -16 13 -27 17 -30 22 -15
13 31 25 18 25 -28 0 -25 5 -45 11 -45 7 0 8 16 3 45 -6 43 -5 45 19 45 18 0
27 -7 31 -25 4 -14 11 -25 16 -25 6 0 10 -12 11 -27 1 -33 17 -76 19 -53 1 8
2 23 1 33 -2 11 5 17 18 17 15 0 21 -6 21 -24 0 -13 7 -29 15 -36 13 -11 15
-5 15 48 0 34 5 64 10 67 6 4 10 -8 10 -28 0 -19 3 -62 6 -96 9 -86 24 -57 24
48 0 46 2 82 4 80 3 -2 9 -50 15 -105 6 -56 13 -108 17 -117 11 -31 22 -8 29
63 4 38 11 70 15 70 5 0 14 -16 21 -35 13 -36 23 -43 34 -25 8 12 45 13 45 1
0 -5 -6 -14 -14 -21 -13 -10 -12 -17 7 -53 11 -23 24 -44 27 -47 3 -3 11 -18
18 -33 7 -16 17 -25 23 -21 8 4 8 9 0 17 -18 18 -13 51 10 65 20 13 21 12 14
-16 -3 -18 -2 -33 5 -37 13 -8 11 -105 -3 -123 -19 -24 3 -25 28 -2 15 14 25
18 25 10 0 -7 -7 -18 -16 -24 -14 -10 -15 -22 -7 -74 8 -49 7 -65 -4 -73 -13
-11 -18 -3 -14 27 3 24 -24 34 -56 22 -26 -10 -29 -14 -20 -29 8 -13 8 -24 -1
-43 -8 -18 -8 -27 -1 -32 16 -10 29 16 30 61 1 35 2 37 9 15 4 -14 8 -47 9
-73 1 -52 15 -56 24 -8 5 21 12 29 25 28 23 -1 23 -18 0 -44 -12 -14 -15 -35
-13 -88 4 -96 4 -95 16 -95 8 0 10 14 6 43 -6 44 4 74 21 63 12 -7 22 -56 11
-56 -12 0 1 -63 17 -80 12 -12 14 -12 14 3 0 9 5 17 10 17 6 0 10 -20 10 -44
0 -67 11 -108 26 -102 9 3 14 -1 14 -12 0 -10 4 -22 9 -27 5 -6 12 -28 15 -50
3 -22 5 -41 6 -42 0 -2 11 -3 25 -3 14 0 25 -4 25 -9 0 -11 -477 -14 -484 -2
-3 5 19 63 48 129 51 112 60 139 57 169 -1 8 -34 13 -98 17 -195 9 -201 10
-222 35 -15 17 -18 31 -14 57 l6 35 -54 -3 c-53 -3 -54 -4 -54 -33 -1 -42 -14
-75 -29 -75 -19 0 -35 -22 -42 -58 -6 -30 -4 -32 20 -32 21 0 27 -4 24 -17 -3
-14 -13 -18 -41 -17 -35 1 -37 -1 -53 -45 -10 -25 -35 -89 -56 -143 -44 -106
-43 -105 -168 -123 l-45 -6 -22 50 c-13 28 -23 54 -23 60 0 14 -77 259 -102
321 -63 161 -90 198 -171 227 l-47 17 0 463 c1 294 4 462 10 458 6 -4 10 -15
10 -27 0 -17 2 -18 15 -8 8 7 15 25 15 41 0 34 15 38 30 9 15 -27 27 -25 35 7
10 40 25 10 25 -50 0 -40 -4 -49 -22 -57 -23 -9 -23 -9 2 -9 24 -1 27 4 38 57
7 32 13 71 14 88 1 16 3 7 5 -21 1 -27 6 -84 10 -125z m777 -246 c9 -3 16 -17
16 -30 0 -22 -2 -23 -20 -12 -11 7 -20 21 -20 30 0 20 1 21 24 12z m484 -306
c-1 -27 -7 -53 -15 -59 -7 -6 -13 -28 -13 -47 0 -27 -3 -33 -11 -25 -8 8 -8
27 1 70 6 32 14 75 17 97 7 52 22 27 21 -36z m124 -13 c-2 -14 -6 -25 -8 -25
-2 0 -4 11 -4 25 0 14 4 25 9 25 4 0 6 -11 3 -25z m-185 -27 c-3 -8 -6 -5 -6
6 -1 11 2 17 5 13 3 -3 4 -12 1 -19z m74 -321 c9 -11 21 -17 26 -14 4 3 8 -29
8 -71 l0 -77 -34 -3 c-40 -4 -39 21 1 26 24 3 26 6 20 45 -3 23 -9 44 -14 45
-13 6 -38 59 -37 79 0 14 2 14 6 3 3 -8 14 -23 24 -33z m-21 -27 c0 -5 -5 -10
-11 -10 -5 0 -7 5 -4 10 3 6 8 10 11 10 2 0 4 -4 4 -10z m-515 -220 c4 -6 -5
-10 -19 -10 -14 0 -26 5 -26 10 0 6 9 10 19 10 11 0 23 -4 26 -10z m-195 -65
c0 -21 -5 -25 -30 -25 -22 0 -30 5 -30 18 0 25 9 32 37 32 18 0 23 -5 23 -25z
m189 6 c6 -10 7 -21 4 -25 -13 -12 -31 -6 -36 13 -9 34 16 43 32 12z m751 4
c0 -8 -7 -15 -15 -15 -16 0 -20 12 -8 23 11 12 23 8 23 -8z m-747 -74 c3 -12
-1 -22 -12 -26 -15 -6 -14 -7 2 -16 26 -15 22 -49 -6 -49 -20 0 -23 5 -25 52
-3 64 27 92 41 39z m-193 -1 c0 -15 -6 -20 -27 -19 -19 1 -22 3 -10 6 11 3 16
11 13 19 -3 8 1 14 9 14 8 0 15 -9 15 -20z m940 0 c0 -5 -5 -10 -11 -10 -5 0
-7 5 -4 10 3 6 8 10 11 10 2 0 4 -4 4 -10z m-942 -62 c-4 -31 -48 -39 -48 -10
0 20 12 30 38 31 8 1 12 -8 10 -21z m956 -13 c5 -15 -27 -30 -44 -20 -14 9
-13 32 3 38 17 6 34 -2 41 -18z m-1608 -121 c-4 -13 -13 -24 -21 -24 -12 0
-15 13 -15 58 l0 57 21 -34 c13 -21 18 -43 15 -57z m652 63 c3 -12 -3 -17 -21
-17 -20 0 -24 4 -20 20 7 25 36 23 41 -3z m-2401 -1773 c-3 -3 -12 -4 -19 -1
-8 3 -5 6 6 6 11 1 17 -2 13 -5z"/>
<path d="M3683 6592 c-24 -2 -43 -7 -43 -13 0 -10 112 -3 170 11 30 7 26 8
-25 7 -33 -1 -79 -3 -102 -5z"/>
<path d="M4771 5188 c0 -7 4 -22 9 -33 7 -17 9 -15 9 13 1 17 -3 32 -9 32 -5
0 -10 -6 -9 -12z"/>
<path d="M5875 4579 c-7 -10 21 -38 38 -39 10 0 9 8 -3 31 -12 21 -25 25 -35
8z"/>
<path d="M5950 4535 c0 -8 5 -15 10 -15 6 0 10 7 10 15 0 8 -4 15 -10 15 -5 0
-10 -7 -10 -15z"/>
<path d="M5845 4321 c-3 -6 3 -15 14 -20 14 -8 20 -7 24 3 3 8 -1 17 -9 20
-20 8 -22 8 -29 -3z"/>
<path d="M5910 4229 c0 -5 5 -7 10 -4 6 3 10 8 10 11 0 2 -4 4 -10 4 -5 0 -10
-5 -10 -11z"/>
<path d="M5895 4150 c3 -5 10 -10 16 -10 5 0 9 5 9 10 0 6 -7 10 -16 10 -8 0
-12 -4 -9 -10z"/>
<path d="M5950 4150 c0 -5 7 -10 15 -10 8 0 15 5 15 10 0 6 -7 10 -15 10 -8 0
-15 -4 -15 -10z"/>
<path d="M5855 3790 c-3 -5 -2 -10 4 -10 5 0 13 5 16 10 3 6 2 10 -4 10 -5 0
-13 -4 -16 -10z"/>
<path d="M6165 3760 c-3 -5 -2 -10 4 -10 5 0 13 5 16 10 3 6 2 10 -4 10 -5 0
-13 -4 -16 -10z"/>
<path d="M7048 6773 c7 -3 16 -2 19 1 4 3 -2 6 -13 5 -11 0 -14 -3 -6 -6z"/>
<path d="M6938 6763 c6 -2 18 -2 25 0 6 3 1 5 -13 5 -14 0 -19 -2 -12 -5z"/>
<path d="M6828 6753 c7 -3 16 -2 19 1 4 3 -2 6 -13 5 -11 0 -14 -3 -6 -6z"/>
</g>
</svg>
