<?xml version="1.0" encoding="UTF-8"?>
<svg version="1.1" xmlns="http://www.w3.org/2000/svg" width="1918" height="906">
<path d="M0 0 C632.94 0 1265.88 0 1918 0 C1918 298.98 1918 597.96 1918 906 C1285.06 906 652.12 906 0 906 C0 607.02 0 308.04 0 0 Z " fill="#E7EEFE" transform="translate(0,0)"/>
<path d="M0 0 C0.91204232 -0.00438225 1.82408465 -0.00876451 2.76376462 -0.01327956 C5.84456659 -0.02672022 8.92533992 -0.03285819 12.00616455 -0.03897095 C14.20506929 -0.04686778 16.40397272 -0.05513646 18.60287476 -0.06375122 C25.84569045 -0.09002015 33.08851207 -0.10528385 40.33135986 -0.11953735 C42.82038629 -0.12489506 45.30941268 -0.13027256 47.79843903 -0.13566971 C58.14911231 -0.1573057 68.49978494 -0.1761954 78.85047531 -0.1872921 C81.53811396 -0.19022192 84.22575256 -0.19318356 86.91339111 -0.19619751 C87.58141177 -0.19694356 88.24943242 -0.19768961 88.93769613 -0.19845827 C99.75930039 -0.21111191 110.58074034 -0.24433317 121.40226778 -0.28599934 C132.50695078 -0.32840593 143.6115654 -0.35157799 154.71633077 -0.35721266 C160.95351007 -0.36087316 167.19041104 -0.37296866 173.42751312 -0.4053154 C179.29457685 -0.43530583 185.16119255 -0.44173996 191.0283165 -0.42993164 C193.18383577 -0.42971015 195.33937528 -0.43807731 197.49482346 -0.45558548 C200.43410518 -0.47816409 203.3717468 -0.47003443 206.31103516 -0.45410156 C207.16736125 -0.46798365 208.02368734 -0.48186574 208.90596271 -0.49616849 C213.30968254 -0.43720859 214.88974839 -0.27409126 218.41563797 2.62940025 C219.07360744 3.46248522 219.73157692 4.29557018 220.40948486 5.15390015 C220.73948486 5.48390015 221.06948486 5.81390015 221.40948486 6.15390015 C221.52854538 7.63064719 221.57955174 9.11296654 221.60235596 10.59432983 C221.61841888 11.53911194 221.63448181 12.48389404 221.65103149 13.45730591 C221.69536373 17.79236269 221.7365625 22.12726345 221.75958252 26.4624939 C221.77613301 28.74970684 221.8034108 31.03686826 221.84161377 33.32382202 C221.89636334 36.61641356 221.91825603 39.90778976 221.93292236 43.20077515 C221.95559174 44.22177307 221.97826111 45.242771 222.00161743 46.29470825 C221.98036948 53.43236699 221.98036948 53.43236699 218.93927002 57.27597046 C218.10444092 57.89568726 217.26961182 58.51540405 216.40948486 59.15390015 C216.07948486 59.48390015 215.74948486 59.81390015 215.40948486 60.15390015 C212.53836366 60.26295042 209.69093231 60.30614812 206.81896973 60.30780029 C205.9069274 60.31218255 204.99488508 60.3165648 204.05520511 60.32107985 C200.97440314 60.33452051 197.8936298 60.34065849 194.81280518 60.34677124 C192.61390044 60.35466807 190.41499701 60.36293676 188.21609497 60.37155151 C180.97327928 60.39782044 173.73045766 60.41308414 166.48760986 60.42733765 C163.99858343 60.43269535 161.50955705 60.43807285 159.0205307 60.44347 C148.66985741 60.46510599 138.31918479 60.4839957 127.96849442 60.49509239 C125.28085577 60.49802221 122.59321717 60.50098386 119.90557861 60.5039978 C119.23755796 60.50474385 118.5695373 60.5054899 117.8812736 60.50625856 C107.05966934 60.5189122 96.23822939 60.55213346 85.41670194 60.59379964 C74.31201895 60.63620622 63.20740433 60.65937828 52.10263896 60.66501296 C45.86545966 60.66867346 39.62855868 60.68076895 33.3914566 60.71311569 C27.52439287 60.74310612 21.65777717 60.74954025 15.79065323 60.73773193 C13.63513396 60.73751044 11.47959445 60.7458776 9.32414627 60.76338577 C6.38486454 60.78596438 3.44722293 60.77783472 0.50793457 60.76190186 C-0.34839152 60.77578394 -1.20471761 60.78966603 -2.08699298 60.80396879 C-6.49071281 60.74500889 -8.07077867 60.58189155 -11.59666824 57.67840004 C-12.25463772 56.84531507 -12.91260719 56.01223011 -13.59051514 55.15390015 C-13.92051514 54.82390015 -14.25051514 54.49390015 -14.59051514 54.15390015 C-14.70957565 52.67715311 -14.76058201 51.19483375 -14.78338623 49.71347046 C-14.79944916 48.76868835 -14.81551208 47.82390625 -14.83206177 46.85049438 C-14.87639401 42.5154376 -14.91759277 38.18053684 -14.94061279 33.8453064 C-14.95716328 31.55809345 -14.98444107 29.27093203 -15.02264404 26.98397827 C-15.07739361 23.69138673 -15.0992863 20.40001053 -15.11395264 17.10702515 C-15.13662201 16.08602722 -15.15929138 15.0650293 -15.18264771 14.01309204 C-15.16139976 6.87543331 -15.16139976 6.87543331 -12.12030029 3.03182983 C-11.28547119 2.41211304 -10.45064209 1.79239624 -9.59051514 1.15390015 C-7.49899492 -0.93762007 -2.88595589 0.00166022 0 0 Z " fill="#165DFC" transform="translate(856.5905151367188,507.8460998535156)"/>
<path d="M0 0 C24.24137931 0 24.24137931 0 31.875 4.8125 C36.22354733 9.28894578 37.23280584 13.10453421 37.5 19.25 C37.32197246 25.74800525 36.0289386 30.82406692 32 36 C22.0290348 44.39966524 14.34272664 42 0 42 C0 28.14 0 14.28 0 0 Z " fill="#212C3C" transform="translate(977,356)"/>
<path d="M0 0 C3.63 0 7.26 0 11 0 C11.83821882 3.91567934 12.6707635 7.83241783 13.5 11.75 C13.73847656 12.86117188 13.97695313 13.97234375 14.22265625 15.1171875 C14.44824219 16.18710937 14.67382812 17.25703125 14.90625 18.359375 C15.22045898 19.83615723 15.22045898 19.83615723 15.54101562 21.34277344 C16 24 16 24 16 28 C16.66 28 17.32 28 18 28 C18.41378906 26.08380859 18.41378906 26.08380859 18.8359375 24.12890625 C19.96923901 19.02904948 21.27809264 13.98448718 22.625 8.9375 C22.85445312 8.07189453 23.08390625 7.20628906 23.3203125 6.31445312 C23.87860886 4.2092106 24.43907389 2.10454338 25 0 C28.63 0 32.26 0 36 0 C38.31 8.91 40.62 17.82 43 27 C45.30402462 18.01430398 47.47425485 9.15447093 49 0 C52.3 0 55.6 0 59 0 C56.63738421 14.37257939 52.43753952 28.15996897 48 42 C44.7 42 41.4 42 38 42 C31 20.22519084 31 20.22519084 31 13 C30.34 13 29.68 13 29 13 C28.9175 14.175625 28.835 15.35125 28.75 16.5625 C27.7960488 25.25866387 25.23794462 33.90513846 22 42 C18.37 42 14.74 42 11 42 C7.94879739 31.4623415 4.93082089 20.91856479 2.125 10.3125 C1.91012939 9.50578857 1.69525879 8.69907715 1.47387695 7.86791992 C0 2.24575814 0 2.24575814 0 0 Z " fill="#253040" transform="translate(510,356)"/>
<path d="M0 0 C3.3 0 6.6 0 10 0 C10 14.52 10 29.04 10 44 C6.7 44 3.4 44 0 44 C-0.33 43.34 -0.66 42.68 -1 42 C-1.680625 42.495 -2.36125 42.99 -3.0625 43.5 C-6.70247525 45.35871077 -8.95462873 45.43343264 -13 45 C-17.22564838 43.1752882 -19.00655534 41.09919606 -21 37 C-21.43359375 33.44140625 -21.43359375 33.44140625 -21.4375 29.5625 C-21.45683594 28.28503906 -21.47617188 27.00757813 -21.49609375 25.69140625 C-20.80210166 20.52744937 -18.70556219 17.38288826 -14.6875 14.125 C-11.24656852 12.68461008 -8.69974637 12.66365942 -5 13 C-3.68 13.66 -2.36 14.32 -1 15 C-0.67 10.05 -0.34 5.1 0 0 Z " fill="#273242" transform="translate(1264,354)"/>
<path d="M0 0 C4.00032218 2.11337776 6.41131582 3.7562546 8 8 C8.62678393 13.98360009 9.20417647 20.69418235 6.375 26.1875 C2.74919165 30.48122042 -0.10663005 31.83954492 -5.6875 32.3125 C-9 32 -9 32 -12 30 C-12 29.34 -12 28.68 -12 28 C-12.66 28 -13.32 28 -14 28 C-14 33.61 -14 39.22 -14 45 C-16.97 45 -19.94 45 -23 45 C-23 30.48 -23 15.96 -23 1 C-20.03 1 -17.06 1 -14 1 C-13.67 1.99 -13.34 2.98 -13 4 C-12.566875 3.525625 -12.13375 3.05125 -11.6875 2.5625 C-8.2592759 -0.61178158 -4.44012985 -0.37628219 0 0 Z " fill="#232E3E" transform="translate(1400,367)"/>
<path d="M0 0 C4.56951925 1.91282201 6.86027954 4.56206127 9 9 C9.90168214 15.6423918 9.32566951 21.18007835 6 27 C3.64500093 29.79656139 2.48686467 30.83771178 -1 32 C-6.32624 32.38736291 -7.54952481 32.33785639 -12 29 C-12.33 34.28 -12.66 39.56 -13 45 C-15.97 45 -18.94 45 -22 45 C-22 30.48 -22 15.96 -22 1 C-19.03 1 -16.06 1 -13 1 C-12.67 1.99 -12.34 2.98 -12 4 C-11.319375 3.34 -10.63875 2.68 -9.9375 2 C-6.26383061 -0.50122172 -4.36916255 -0.54614532 0 0 Z " fill="#222D3D" transform="translate(1362,367)"/>
<path d="M0 0 C2.97 0 5.94 0 9 0 C9.33 5.61 9.66 11.22 10 17 C11.65 15.68 13.3 14.36 15 13 C18.77566459 12.52804193 21.17600409 12.65507148 24.6875 14.125 C28.38303148 17.12137687 30.69262186 19.73564768 31.3515625 24.58984375 C31.56568836 31.68519599 30.66692543 36.83302605 26 42.375 C22.25109295 45.42098697 18.67029182 45.32773978 14 45 C11.5625 43.5 11.5625 43.5 10 42 C9.67 42.66 9.34 43.32 9 44 C6.03 44 3.06 44 0 44 C0 29.48 0 14.96 0 0 Z " fill="#222D3D" transform="translate(1115,354)"/>
<path d="M0 0 C1.26953125 2.05859375 1.26953125 2.05859375 2 4 C3.010625 3.175 4.02125 2.35 5.0625 1.5 C8.80996063 -1.1648609 11.35719554 -1.68782288 16 -1 C19.81799985 0.69688882 21.49338174 2.13976337 23 6 C23.22705078 8.65722656 23.22705078 8.65722656 23.1953125 11.640625 C23.18886719 12.71054687 23.18242188 13.78046875 23.17578125 14.8828125 C23.15902344 15.99398438 23.14226563 17.10515625 23.125 18.25 C23.11597656 19.37664062 23.10695313 20.50328125 23.09765625 21.6640625 C23.07410658 24.44292365 23.0412168 27.2213539 23 30 C20.03 30 17.06 30 14 30 C13.970271 29.06148193 13.970271 29.06148193 13.93994141 28.10400391 C13.84485774 25.27723481 13.73511254 22.45122185 13.625 19.625 C13.5940625 18.64015625 13.563125 17.6553125 13.53125 16.640625 C13.47324219 15.22910156 13.47324219 15.22910156 13.4140625 13.7890625 C13.3826416 12.91975098 13.3512207 12.05043945 13.31884766 11.15478516 C13.18770567 8.79038206 13.18770567 8.79038206 11 7 C7.69316534 7.28983269 7.69316534 7.28983269 5 9 C4.84313751 10.55948542 4.74923361 12.12542668 4.68359375 13.69140625 C4.64169922 14.63564453 4.59980469 15.57988281 4.55664062 16.55273438 C4.51732422 17.54595703 4.47800781 18.53917969 4.4375 19.5625 C4.39431641 20.55958984 4.35113281 21.55667969 4.30664062 22.58398438 C4.20019702 25.0558415 4.09818072 27.5278031 4 30 C1.03 30 -1.94 30 -5 30 C-5.01981934 29.37432129 -5.03963867 28.74864258 -5.06005859 28.10400391 C-5.15514226 25.27723481 -5.26488746 22.45122185 -5.375 19.625 C-5.4059375 18.64015625 -5.436875 17.6553125 -5.46875 16.640625 C-5.50742187 15.69960938 -5.54609375 14.75859375 -5.5859375 13.7890625 C-5.63306885 12.48509521 -5.63306885 12.48509521 -5.68115234 11.15478516 C-5.81229433 8.79038206 -5.81229433 8.79038206 -8 7 C-11.06991681 7.16442277 -11.06991681 7.16442277 -14 8 C-15.17469444 10.34938888 -15.20034889 11.95073205 -15.31640625 14.5703125 C-15.35830078 15.46621094 -15.40019531 16.36210937 -15.44335938 17.28515625 C-15.48267578 18.22230469 -15.52199219 19.15945313 -15.5625 20.125 C-15.60568359 21.06988281 -15.64886719 22.01476562 -15.69335938 22.98828125 C-15.7995894 25.32534172 -15.90031271 27.6626513 -16 30 C-18.97 30 -21.94 30 -25 30 C-25 20.1 -25 10.2 -25 0 C-21.7 0 -18.4 0 -15 0 C-14.67 0.66 -14.34 1.32 -14 2 C-13.360625 1.484375 -12.72125 0.96875 -12.0625 0.4375 C-8.01918496 -1.46038257 -4.23852043 -1.52386884 0 0 Z " fill="#242E3E" transform="translate(712,368)"/>
<path d="M0 0 C3.96 0 7.92 0 12 0 C15.24273882 7.89838527 18.15883519 15.89560342 21.00146484 23.9440918 C21.75995159 26.09066371 22.52235557 28.23581713 23.28515625 30.38085938 C23.76845847 31.74471043 24.25153987 33.10863976 24.734375 34.47265625 C25.38744629 36.31742554 25.38744629 36.31742554 26.05371094 38.19946289 C27 41 27 41 27 42 C23.37 42 19.74 42 16 42 C15.34 38.7 14.68 35.4 14 32 C8.72 32 3.44 32 -2 32 C-2.66 35.3 -3.32 38.6 -4 42 C-7.3 42 -10.6 42 -14 42 C-12.37217405 32.94393032 -9.06289643 24.53379593 -5.875 15.9375 C-5.30546523 14.38886461 -4.7364503 12.84003794 -4.16796875 11.29101562 C-2.78463367 7.52511006 -1.39427449 3.76186839 0 0 Z " fill="#242F3F" transform="translate(1309,356)"/>
<path d="M0 0 C4.03381891 4.13997204 5.12154028 7.65406191 5.3125 13.3125 C5.23403734 18.08302979 4.14573296 21.38615202 1 25 C-3.99091946 28.97236447 -8.07354283 29.62922064 -14.41015625 29.39453125 C-18.06029926 28.83847628 -20.24655804 27.40926171 -23 25 C-23.598125 24.484375 -24.19625 23.96875 -24.8125 23.4375 C-28.04165247 19.52852596 -27.44609743 14.03531574 -27.4140625 9.24609375 C-26.88284359 5.08153797 -25.65002192 3.0691485 -22.6328125 0.234375 C-15.80742249 -4.92548922 -7.19931517 -4.09372823 0 0 Z " fill="#242F3F" transform="translate(1178,370)"/>
<path d="M0 0 C3.58367643 2.46219651 4.7879554 5.01270892 5.66015625 9.140625 C6.26967497 14.54635664 6.05601174 19.02919145 2.97265625 23.6328125 C-0.2300472 27.31210873 -3.31800901 28.85556981 -8.02734375 29.51953125 C-13.98838638 29.77060777 -17.70074092 29.19983998 -22.33984375 25.140625 C-22.93796875 24.625 -23.53609375 24.109375 -24.15234375 23.578125 C-27.38149622 19.66915096 -26.78594118 14.17594074 -26.75390625 9.38671875 C-26.22268734 5.22216297 -24.98986567 3.2097735 -21.97265625 0.375 C-15.23572263 -4.71799288 -7.10840608 -4.01349369 0 0 Z " fill="#242F3F" transform="translate(839.33984375,369.859375)"/>
<path d="M0 0 C3.97282203 2.25905567 6.15635816 4.75021632 8.1875 8.8125 C8.85412669 14.69192886 8.56853293 19.92704293 5.57421875 25.1171875 C2.48955203 28.88830119 -1.37579131 30.45379669 -6.12109375 31.15234375 C-11.05607103 31.36039507 -14.63787777 30.6279429 -18.8125 27.8125 C-23.62059016 22.6145647 -24.16114418 18.4087353 -24.09765625 11.54296875 C-23.5970947 6.74992048 -21.25880755 4.08349754 -17.75 1 C-12.20590691 -2.39799254 -5.98794696 -1.86509823 0 0 Z " fill="#232E3E" transform="translate(672.8125,368.1875)"/>
<path d="M0 0 C2.97 0 5.94 0 9 0 C9.33 5.28 9.66 10.56 10 16 C11.65 15.01 13.3 14.02 15 13 C17.31640625 12.78515625 17.31640625 12.78515625 19.5625 13.0625 C20.67818359 13.17271484 20.67818359 13.17271484 21.81640625 13.28515625 C24.79218534 14.25933795 26.03449068 15.56884823 28 18 C28.45410156 20.84082031 28.45410156 20.84082031 28.390625 24.078125 C28.37128906 25.81835938 28.37128906 25.81835938 28.3515625 27.59375 C28.31804687 28.8003125 28.28453125 30.006875 28.25 31.25 C28.23195313 32.47203125 28.21390625 33.6940625 28.1953125 34.953125 C28.148181 37.96954078 28.08239413 40.98437491 28 44 C25.03 44 22.06 44 19 44 C18.97494385 43.3387915 18.9498877 42.67758301 18.92407227 41.99633789 C18.80846898 39.01817695 18.68558246 36.0403608 18.5625 33.0625 C18.52318359 32.02158203 18.48386719 30.98066406 18.44335938 29.90820312 C18.40146484 28.91884766 18.35957031 27.92949219 18.31640625 26.91015625 C18.27974854 25.99371338 18.24309082 25.07727051 18.20532227 24.13305664 C18.22996136 22.0179272 18.22996136 22.0179272 17 21 C14.54190002 20.7499227 14.54190002 20.7499227 12 21 C9.51942372 23.48057628 9.70980995 24.36192464 9.5859375 27.7890625 C9.52792969 29.20058594 9.52792969 29.20058594 9.46875 30.640625 C9.42234375 32.11789062 9.42234375 32.11789062 9.375 33.625 C9.31699219 35.11386719 9.31699219 35.11386719 9.2578125 36.6328125 C9.1633686 39.08835385 9.07780125 41.5438841 9 44 C6.03 44 3.06 44 0 44 C0 29.48 0 14.96 0 0 Z " fill="#222D3D" transform="translate(1079,354)"/>
<path d="M0 0 C2.97 0 5.94 0 9 0 C9.33 5.28 9.66 10.56 10 16 C11.65 15.01 13.3 14.02 15 13 C17.31640625 12.78515625 17.31640625 12.78515625 19.5625 13.0625 C20.67818359 13.17271484 20.67818359 13.17271484 21.81640625 13.28515625 C24.79218534 14.25933795 26.03449068 15.56884823 28 18 C28.45410156 20.84082031 28.45410156 20.84082031 28.390625 24.078125 C28.37128906 25.81835938 28.37128906 25.81835938 28.3515625 27.59375 C28.31804688 28.8003125 28.28453125 30.006875 28.25 31.25 C28.23195313 32.47203125 28.21390625 33.6940625 28.1953125 34.953125 C28.148181 37.96954078 28.08239413 40.98437491 28 44 C25.03 44 22.06 44 19 44 C18.97494385 43.3387915 18.9498877 42.67758301 18.92407227 41.99633789 C18.80846898 39.01817695 18.68558246 36.0403608 18.5625 33.0625 C18.52318359 32.02158203 18.48386719 30.98066406 18.44335938 29.90820312 C18.40146484 28.91884766 18.35957031 27.92949219 18.31640625 26.91015625 C18.27974854 25.99371338 18.24309082 25.07727051 18.20532227 24.13305664 C18.22996136 22.0179272 18.22996136 22.0179272 17 21 C14.54190002 20.7499227 14.54190002 20.7499227 12 21 C9.51942372 23.48057628 9.70980995 24.36192464 9.5859375 27.7890625 C9.52792969 29.20058594 9.52792969 29.20058594 9.46875 30.640625 C9.42234375 32.11789062 9.42234375 32.11789062 9.375 33.625 C9.31699219 35.11386719 9.31699219 35.11386719 9.2578125 36.6328125 C9.1633686 39.08835385 9.07780125 41.5438841 9 44 C6.03 44 3.06 44 0 44 C0 29.48 0 14.96 0 0 Z " fill="#222D3D" transform="translate(891,354)"/>
<path d="M0 0 C3.22608355 2.10070557 4.96822615 3.91912112 6.375 7.5 C6.84524366 10.88575438 6.6875 14.3317458 6.6875 17.75 C0.4175 17.75 -5.8525 17.75 -12.3125 17.75 C-11.9825 19.4 -11.6525 21.05 -11.3125 22.75 C-6.3625 22.75 -1.4125 22.75 3.6875 22.75 C3.6875 24.73 3.6875 26.71 3.6875 28.75 C-1.6108374 30.9808789 -6.64555885 31.48836367 -12.3125 30.75 C-17.15365976 28.41907123 -20.01551121 25.60901474 -22.3125 20.75 C-23.07747097 15.58254303 -23.11571342 10.5644092 -20.75 5.8125 C-15.15385038 -1.21855978 -8.61488881 -3.25090144 0 0 Z " fill="#273242" transform="translate(947.3125,368.25)"/>
<path d="M0 0 C3.22608355 2.10070557 4.96822615 3.91912112 6.375 7.5 C6.84524366 10.88575438 6.6875 14.3317458 6.6875 17.75 C0.4175 17.75 -5.8525 17.75 -12.3125 17.75 C-11.9825 19.4 -11.6525 21.05 -11.3125 22.75 C-6.3625 22.75 -1.4125 22.75 3.6875 22.75 C3.6875 24.73 3.6875 26.71 3.6875 28.75 C-1.6108374 30.9808789 -6.64555885 31.48836367 -12.3125 30.75 C-17.15365976 28.41907123 -20.01551121 25.60901474 -22.3125 20.75 C-23.07747097 15.58254303 -23.11571342 10.5644092 -20.75 5.8125 C-15.15385038 -1.21855978 -8.61488881 -3.25090144 0 0 Z " fill="#273242" transform="translate(762.3125,368.25)"/>
<path d="M0 0 C4.17905855 1.57700323 6.70772617 3.13932829 9 7 C10 10 10 10 10 19 C3.73 19 -2.54 19 -9 19 C-8.01 20.65 -7.02 22.3 -6 24 C-3.63592916 24.64090535 -3.63592916 24.64090535 -1.0625 24.375 C0.21947266 24.32472656 0.21947266 24.32472656 1.52734375 24.2734375 C3.77158678 24.02525897 5.83070148 23.61404738 8 23 C8 25.31 8 27.62 8 30 C1.66078391 32.87729338 -4.85640334 33.08596976 -11.4375 30.8125 C-14.34681361 28.75469282 -16.03107028 26.97810917 -18 24 C-18.49609375 20.625 -18.49609375 20.625 -18.4375 17 C-18.43621094 15.80375 -18.43492187 14.6075 -18.43359375 13.375 C-17.80502235 8.48233611 -16.10133384 5.96702483 -12.4375 2.75 C-8.32778373 -0.20056552 -4.98087506 -0.51942086 0 0 Z " fill="#263141" transform="translate(589,367)"/>
<path d="M0 0 C3.09555217 1.8573313 4.31884309 3.14238766 6.1875 6.3125 C6.68525945 10.42647994 6.56320539 14.48880918 6.4375 18.625 C6.41945313 19.74712891 6.40140625 20.86925781 6.3828125 22.02539062 C6.33577856 24.78863447 6.27006317 27.55012698 6.1875 30.3125 C3.2175 30.3125 0.2475 30.3125 -2.8125 30.3125 C-3.1425 29.6525 -3.4725 28.9925 -3.8125 28.3125 C-4.328125 28.8075 -4.84375 29.3025 -5.375 29.8125 C-8.75013128 31.88950386 -10.91050946 31.79169182 -14.8125 31.3125 C-17.56579021 29.51687595 -19.33877461 28.25995078 -20.8125 25.3125 C-21.18637586 21.34941587 -21.20185825 19.01334485 -19.25 15.5 C-14.43475912 11.17862998 -9.04955154 11.05792647 -2.8125 11.3125 C-3.16036708 9.33713255 -3.16036708 9.33713255 -3.8125 7.3125 C-6.2867979 6.07535105 -7.52749333 6.35668638 -10.25 6.6875 C-11.42369141 6.82285156 -11.42369141 6.82285156 -12.62109375 6.9609375 C-14.98196986 7.27901128 -14.98196986 7.27901128 -17.8125 8.3125 C-17.8125 6.0025 -17.8125 3.6925 -17.8125 1.3125 C-11.87818543 -1.12209059 -6.21105019 -1.51825671 0 0 Z " fill="#242F3F" transform="translate(1206.8125,367.6875)"/>
<path d="M0 0 C3.09555217 1.8573313 4.31884309 3.14238766 6.1875 6.3125 C6.68525945 10.42647994 6.56320539 14.48880918 6.4375 18.625 C6.41945313 19.74712891 6.40140625 20.86925781 6.3828125 22.02539062 C6.33577856 24.78863447 6.27006317 27.55012698 6.1875 30.3125 C3.2175 30.3125 0.2475 30.3125 -2.8125 30.3125 C-3.1425 29.6525 -3.4725 28.9925 -3.8125 28.3125 C-4.328125 28.8075 -4.84375 29.3025 -5.375 29.8125 C-8.75013128 31.88950386 -10.91050946 31.79169182 -14.8125 31.3125 C-17.56579021 29.51687595 -19.33877461 28.25995078 -20.8125 25.3125 C-21.18637586 21.34941587 -21.20185825 19.01334485 -19.25 15.5 C-14.43475912 11.17862998 -9.04955154 11.05792647 -2.8125 11.3125 C-3.16036708 9.33713255 -3.16036708 9.33713255 -3.8125 7.3125 C-6.2867979 6.07535105 -7.52749333 6.35668638 -10.25 6.6875 C-11.42369141 6.82285156 -11.42369141 6.82285156 -12.62109375 6.9609375 C-14.98196986 7.27901128 -14.98196986 7.27901128 -17.8125 8.3125 C-17.8125 6.0025 -17.8125 3.6925 -17.8125 1.3125 C-11.87818543 -1.12209059 -6.21105019 -1.51825671 0 0 Z " fill="#242F3F" transform="translate(1038.8125,367.6875)"/>
<path d="M0 0 C0 2.97 0 5.94 0 9 C2.31 9 4.62 9 7 9 C7 11.31 7 13.62 7 16 C4.69 16 2.38 16 0 16 C0.33 20.95 0.66 25.9 1 31 C3.98031281 31.69882131 3.98031281 31.69882131 7 32 C7 34.31 7 36.62 7 39 C3.79826746 40.60086627 0.47422941 40.49917089 -3 40 C-5.8100346 38.20636089 -7.50940468 36.98119065 -9 34 C-9.08308638 32.62451844 -9.10736016 31.24514204 -9.09765625 29.8671875 C-9.09443359 29.06152344 -9.09121094 28.25585938 -9.08789062 27.42578125 C-9.07951172 26.58402344 -9.07113281 25.74226563 -9.0625 24.875 C-9.05798828 24.02550781 -9.05347656 23.17601562 -9.04882812 22.30078125 C-9.03702874 20.20049091 -9.01909306 18.1002367 -9 16 C-10.65 16 -12.3 16 -14 16 C-14 13.69 -14 11.38 -14 9 C-12.35 9 -10.7 9 -9 9 C-9 6.69 -9 4.38 -9 2 C-2.25 0 -2.25 0 0 0 Z " fill="#232E3E" transform="translate(802,359)"/>
<path d="M0 0 C0 2.97 0 5.94 0 9 C1.98 9 3.96 9 6 9 C6 11.31 6 13.62 6 16 C4.02 16 2.04 16 0 16 C0.33 20.95 0.66 25.9 1 31 C2.65 31.66 4.3 32.32 6 33 C6 34.98 6 36.96 6 39 C2.84203893 40.57898053 -0.60670636 40.81928171 -4 40 C-6.92318578 37.96376375 -8.74404636 36.4161822 -9.39624023 32.80761719 C-9.49225049 30.2497205 -9.43641801 27.74402394 -9.3125 25.1875 C-9.27866211 23.86202148 -9.27866211 23.86202148 -9.24414062 22.50976562 C-9.18547428 20.3391109 -9.09579979 18.1693331 -9 16 C-10.65 16 -12.3 16 -14 16 C-14 13.69 -14 11.38 -14 9 C-12.35 9 -10.7 9 -9 9 C-9 6.69 -9 4.38 -9 2 C-2.25 0 -2.25 0 0 0 Z " fill="#232E3E" transform="translate(879,359)"/>
<path d="M0 0 C0.9796875 -0.00257813 1.959375 -0.00515625 2.96875 -0.0078125 C5.5 0.125 5.5 0.125 7.5 1.125 C7.5 3.105 7.5 5.085 7.5 7.125 C4.2 7.125 0.9 7.125 -2.5 7.125 C-2.5 8.445 -2.5 9.765 -2.5 11.125 C-1.88511719 11.37894531 -1.27023437 11.63289063 -0.63671875 11.89453125 C0.17152344 12.23871094 0.97976563 12.58289063 1.8125 12.9375 C2.61300781 13.27394531 3.41351562 13.61039062 4.23828125 13.95703125 C6.52984055 15.14040989 7.92864842 16.08769559 9.5 18.125 C9.89919236 21.21874082 10.12913952 23.16400393 9.5 26.125 C6.96546343 29.34454645 5.38702695 30.82932435 1.5 32.125 C-0.14371491 32.21829934 -1.79114677 32.25495144 -3.4375 32.25 C-4.71947266 32.25386719 -4.71947266 32.25386719 -6.02734375 32.2578125 C-8.32680852 32.13430254 -10.29640348 31.76920687 -12.5 31.125 C-12.5 28.815 -12.5 26.505 -12.5 24.125 C-11.72914062 24.1971875 -10.95828125 24.269375 -10.1640625 24.34375 C-9.16117188 24.4365625 -8.15828125 24.529375 -7.125 24.625 C-5.62839844 24.76421875 -5.62839844 24.76421875 -4.1015625 24.90625 C-1.60296264 25.15292947 -1.60296264 25.15292947 0.5 25.125 C0.3353218 23.17438135 0.3353218 23.17438135 -0.5 21.125 C-2.47491412 19.87908616 -2.47491412 19.87908616 -4.875 19.0625 C-8.06678807 17.85128401 -10.4177948 16.90127359 -12.5 14.125 C-13.17706156 11.06129644 -13.11148145 8.19908402 -12.5 5.125 C-8.54947421 0.9665518 -5.58147699 -0.0146881 0 0 Z " fill="#232D3D" transform="translate(1063.5,366.875)"/>
<path d="M0 0 C3.3 0 6.6 0 10 0 C10 14.52 10 29.04 10 44 C6.7 44 3.4 44 0 44 C0 29.48 0 14.96 0 0 Z " fill="#2D3747" transform="translate(604,354)"/>
<path d="M0 0 C0.7734375 -0.00257813 1.546875 -0.00515625 2.34375 -0.0078125 C4.5 0.125 4.5 0.125 7.5 1.125 C7.5 3.435 7.5 5.745 7.5 8.125 C6.90832031 8.06699219 6.31664062 8.00898438 5.70703125 7.94921875 C1.30220727 7.69771983 -0.83719045 7.66509133 -4.5625 10.25 C-7.27307529 14.27214398 -6.81186556 16.81719489 -6.1875 21.4375 C-5.960625 21.994375 -5.73375 22.55125 -5.5 23.125 C-2.48509443 24.12996852 -0.45818308 24.22835303 2.6875 24.1875 C3.58855469 24.17847656 4.48960937 24.16945313 5.41796875 24.16015625 C6.44857422 24.14275391 6.44857422 24.14275391 7.5 24.125 C7.5 26.435 7.5 28.745 7.5 31.125 C1.93400474 32.68650093 -3.34227795 32.898523 -8.8125 30.9375 C-12.32770834 28.5667781 -14.60640381 25.91219238 -16.5 22.125 C-17.0238576 16.86924835 -17.16505372 12.47973905 -14.8125 7.6875 C-10.32799505 2.71818371 -6.79848494 -0.02266162 0 0 Z " fill="#232E3E" transform="translate(636.5,366.875)"/>
<path d="M0 0 C11.46428571 0 11.46428571 0 15 3 C18.40363496 6.82598383 18.45325815 9.56468324 18.28515625 14.52734375 C17.76751123 19.01596424 16.31214265 21.84690494 12.9375 24.8125 C10 26 10 26 0 27 C0 18.09 0 9.18 0 0 Z " fill="#DFE6F7" transform="translate(986,364)"/>
<path d="M0 0 C0 2.97 0 5.94 0 9 C-1.11375 8.95875 -2.2275 8.9175 -3.375 8.875 C-7.04366025 8.58878141 -7.04366025 8.58878141 -9 11 C-9.36952049 13.12860662 -9.36952049 13.12860662 -9.4140625 15.5703125 C-9.47207031 16.91416016 -9.47207031 16.91416016 -9.53125 18.28515625 C-9.57765625 19.69087891 -9.57765625 19.69087891 -9.625 21.125 C-9.68300781 22.54232422 -9.68300781 22.54232422 -9.7421875 23.98828125 C-9.8366082 26.3251935 -9.91939898 28.6625703 -10 31 C-13.3 31 -16.6 31 -20 31 C-20 21.1 -20 11.2 -20 1 C-16.7 1 -13.4 1 -10 1 C-9.67 1.66 -9.34 2.32 -9 3 C-8.443125 2.505 -7.88625 2.01 -7.3125 1.5 C-4.61837017 -0.24754367 -3.14624993 -0.26218749 0 0 Z " fill="#293444" transform="translate(1240,367)"/>
<path d="M0 0 C3.14595819 2.73201633 3.91970305 4.35762437 4.4375 8.5 C3.9421493 12.46280559 2.84563205 15.15436795 0 18 C-2.8125 18.375 -2.8125 18.375 -6 18 C-8.64736319 15.84030898 -9.79186119 14.19361235 -10.3828125 10.8046875 C-10.57133224 6.9965887 -10.44333696 4.69910828 -8.375 1.4375 C-5.25099332 -0.45334615 -3.59011393 -0.67314636 0 0 Z " fill="#DFE6F5" transform="translate(668,374)"/>
<path d="M0 0 C2.58399406 2.58399406 2.3268593 3.78370365 2.375 7.375 C2.29606875 10.9129774 2.20416845 12.64066353 0.4375 15.75 C-3.07178131 17.54963144 -5.26411481 17.03774589 -9 16 C-11.8294751 11.75578735 -11.64298452 7.98109528 -11 3 C-8.14392147 -1.91245507 -5.15665564 -1.33691072 0 0 Z " fill="#E0E7F8" transform="translate(1171,375)"/>
<path d="M0 0 C2.58399406 2.58399406 2.3268593 3.78370365 2.375 7.375 C2.29606875 10.9129774 2.20416845 12.64066353 0.4375 15.75 C-3.07178131 17.54963144 -5.26411481 17.03774589 -9 16 C-11.8294751 11.75578735 -11.64298452 7.98109528 -11 3 C-8.14392147 -1.91245507 -5.15665564 -1.33691072 0 0 Z " fill="#E1E8F8" transform="translate(833,375)"/>
<path d="M0 0 C3.375 1 3.375 1 5.375 4 C5.811657 9.41454674 5.75781119 12.53468924 2.375 17 C2.045 17.33 1.715 17.66 1.375 18 C-5.02622511 17.65084227 -5.02622511 17.65084227 -7.0625 15.4375 C-8.24399533 10.31768691 -8.43477381 6.58715667 -6.0625 1.9375 C-3.625 0 -3.625 0 0 0 Z " fill="#DCE3F5" transform="translate(1393.625,374)"/>
<path d="M0 0 C1.96954135 3.93908269 1.44975784 8.70512937 1 13 C-0.625 15.75 -0.625 15.75 -3 17 C-6.125 16.9375 -6.125 16.9375 -9 16 C-11.8294751 11.75578735 -11.64298452 7.98109528 -11 3 C-8.15141675 -1.89956318 -5.14783454 -1.35980535 0 0 Z " fill="#DFE6F8" transform="translate(1360,375)"/>
<path d="M0 0 C2.36050436 1.72498396 2.9395593 2.64334542 3.43359375 5.55859375 C3.44402791 13.24856816 3.44402791 13.24856816 1.375 16.75 C-1 18 -1 18 -4.125 17.9375 C-7 17 -7 17 -9 14 C-9.66006064 9.40260091 -9.86138521 5.33993255 -7.3125 1.375 C-4.54812231 -0.26868403 -3.16111629 -0.56737985 0 0 Z " fill="#E0E7F8" transform="translate(1261,374)"/>
<path d="M0 0 C2.36050436 1.72498396 2.9395593 2.64334542 3.43359375 5.55859375 C3.44402791 13.24856816 3.44402791 13.24856816 1.375 16.75 C-1 18 -1 18 -4.125 17.9375 C-7 17 -7 17 -9 14 C-9.66006064 9.40260091 -9.86138521 5.33993255 -7.3125 1.375 C-4.54812231 -0.26868403 -3.16111629 -0.56737985 0 0 Z " fill="#E0E8F8" transform="translate(1133,374)"/>
<path d="M0 0 C0.33 0.99 0.66 1.98 1 3 C3.78818501 4.3383288 6.16968896 3.8826739 9.125 3.4375 C10.40375 3.293125 11.6825 3.14875 13 3 C15 5 15 5 15.1953125 7.3828125 C15.17210937 8.28773438 15.14890625 9.19265625 15.125 10.125 C15.10695313 11.03507812 15.08890625 11.94515625 15.0703125 12.8828125 C15.04710937 13.58148438 15.02390625 14.28015625 15 15 C13.741875 15.04125 12.48375 15.0825 11.1875 15.125 C10.47980469 15.14820313 9.77210938 15.17140625 9.04296875 15.1953125 C7 15 7 15 4 13 C4 13.66 4 14.32 4 15 C2.35 14.67 0.7 14.34 -1 14 C-1 11.03 -1 8.06 -1 5 C-1.66 5 -2.32 5 -3 5 C-3 4.34 -3 3.68 -3 3 C-2.01 3 -1.02 3 0 3 C0 2.01 0 1.02 0 0 Z " fill="#D2DCEC" transform="translate(710,444)"/>
<path d="M0 0 C0.66 0 1.32 0 2 0 C2.33 2.97 2.66 5.94 3 9 C4.32 7.68 5.64 6.36 7 5 C7.66 5.33 8.32 5.66 9 6 C8.484375 6.4125 7.96875 6.825 7.4375 7.25 C5.77030475 8.87337657 5.77030475 8.87337657 6.125 10.9375 C7.11579147 13.27293703 8.3939811 15.04484656 10 17 C6.73045798 16.43628586 5.17424117 15.50037734 3 13 C2.67 14.32 2.34 15.64 2 17 C-1 16 -1 16 -2 15 C-2.33 15.66 -2.66 16.32 -3 17 C-5.3125 17.25 -5.3125 17.25 -8 17 C-9.875 15.375 -9.875 15.375 -11 13 C-10.875 9.875 -10.875 9.875 -10 7 C-6.77786243 4.85190829 -5.72224599 4.70613847 -2 5 C-1.67 5.33 -1.34 5.66 -1 6 C-0.67 4.02 -0.34 2.04 0 0 Z " fill="#E0EBFE" transform="translate(806,442)"/>
<path d="M0 0 C0.66 0 1.32 0 2 0 C2.33 2.97 2.66 5.94 3 9 C4.32 7.68 5.64 6.36 7 5 C7.66 5.33 8.32 5.66 9 6 C8.01 7.485 8.01 7.485 7 9 C7.886875 8.34 8.77375 7.68 9.6875 7 C12.98111986 5.01139933 14.28251873 4.56264926 18 5 C18 5.66 18 6.32 18 7 C16.35 7 14.7 7 13 7 C14.93254772 9.0245738 16.63158688 10.42105792 19 12 C18.125 15.875 18.125 15.875 17 17 C8.27272727 17.96969697 8.27272727 17.96969697 4.375 15 C3.694375 14.01 3.694375 14.01 3 13 C2.67 14.32 2.34 15.64 2 17 C1.34 17 0.68 17 0 17 C0 11.39 0 5.78 0 0 Z " fill="#E5EBF3" transform="translate(737,442)"/>
<path d="M0 0 C8.23602484 -0.48447205 8.23602484 -0.48447205 11.5625 1.625 C13.43910956 4.72548536 13.59452734 6.43283597 13 10 C11.5625 12.375 11.5625 12.375 9 14 C5.91795759 14.32889265 3.11605929 14.18329761 0 14 C0 9.38 0 4.76 0 0 Z " fill="#E0F2FE" transform="translate(941,532)"/>
<path d="M0 0 C0.08126087 2.08268593 0.13930839 4.16628658 0.1875 6.25 C0.22230469 7.41015625 0.25710938 8.5703125 0.29296875 9.765625 C-0.0223716 13.24698247 -0.4782163 14.61831539 -3 17 C-6.1875 17.25 -6.1875 17.25 -9 17 C-9 16.01 -9 15.02 -9 14 C-7.02 14 -5.04 14 -3 14 C-2.67 13.01 -2.34 12.02 -2 11 C-3.3921875 11.3403125 -3.3921875 11.3403125 -4.8125 11.6875 C-8 12 -8 12 -9.875 10.9375 C-11.49933741 8.14003001 -11.39704314 6.17634515 -11 3 C-8.70019487 -1.31213463 -4.28166314 -0.2105736 0 0 Z " fill="#5F6B82" transform="translate(986,447)"/>
<path d="M0 0 C0.08126087 2.08268593 0.13930839 4.16628658 0.1875 6.25 C0.22230469 7.41015625 0.25710938 8.5703125 0.29296875 9.765625 C-0.0223716 13.24698247 -0.4782163 14.61831539 -3 17 C-6.1875 17.25 -6.1875 17.25 -9 17 C-9 16.01 -9 15.02 -9 14 C-7.02 14 -5.04 14 -3 14 C-2.67 13.01 -2.34 12.02 -2 11 C-3.3921875 11.3403125 -3.3921875 11.3403125 -4.8125 11.6875 C-8 12 -8 12 -9.875 10.9375 C-11.49933741 8.14003001 -11.39704314 6.17634515 -11 3 C-8.70019487 -1.31213463 -4.28166314 -0.2105736 0 0 Z " fill="#606B82" transform="translate(637,447)"/>
<path d="M0 0 C0.66 0 1.32 0 2 0 C2 5.61 2 11.22 2 17 C-4.8359375 17.29296875 -4.8359375 17.29296875 -7 17 C-9.31282587 13.53076119 -9.42478586 12.07794425 -9 8 C-7.875 6.0625 -7.875 6.0625 -6 5 C-2.8125 5.3125 -2.8125 5.3125 0 6 C0 4.02 0 2.04 0 0 Z " fill="#6A6C7B" transform="translate(1343,442)"/>
<path d="M0 0 C0.66 0 1.32 0 2 0 C2 5.61 2 11.22 2 17 C-4.8359375 17.29296875 -4.8359375 17.29296875 -7 17 C-9.31282587 13.53076119 -9.42478586 12.07794425 -9 8 C-7.875 6.0625 -7.875 6.0625 -6 5 C-2.8125 5.3125 -2.8125 5.3125 0 6 C0 4.02 0 2.04 0 0 Z " fill="#6A6C7B" transform="translate(944,442)"/>
<path d="M0 0 C0.66 0 1.32 0 2 0 C2 5.61 2 11.22 2 17 C-6 17 -6 17 -8 15.875 C-9.47901666 13.10184376 -9.38601984 11.08815875 -9 8 C-7.875 6.0625 -7.875 6.0625 -6 5 C-2.8125 5.3125 -2.8125 5.3125 0 6 C0 4.02 0 2.04 0 0 Z " fill="#686977" transform="translate(1250,442)"/>
<path d="M0 0 C0.66 0 1.32 0 2 0 C2 5.61 2 11.22 2 17 C-6 17 -6 17 -8 15.875 C-9.47901666 13.10184376 -9.38601984 11.08815875 -9 8 C-7.875 6.0625 -7.875 6.0625 -6 5 C-2.8125 5.3125 -2.8125 5.3125 0 6 C0 4.02 0 2.04 0 0 Z " fill="#5F6C85" transform="translate(1049,442)"/>
<path d="M0 0 C3.53471921 0 6.56187949 0.23597322 10 1 C11.39935013 3.79870027 11.25265405 5.90498792 11 9 C9.875 10.9375 9.875 10.9375 8 12 C4.8125 11.6875 4.8125 11.6875 2 11 C2 12.98 2 14.96 2 17 C1.34 17 0.68 17 0 17 C0 11.39 0 5.78 0 0 Z " fill="#6D6B77" transform="translate(1148,447)"/>
<path d="M0 0 C0.66 0 1.32 0 2 0 C2.33 1.65 2.66 3.3 3 5 C3.78375 4.95875 4.5675 4.9175 5.375 4.875 C8 5 8 5 10 7 C10.31537716 11.33643601 10.44897847 13.32653229 8 17 C5.36 17 2.72 17 0 17 C0 11.39 0 5.78 0 0 Z " fill="#5C657F" transform="translate(1289,442)"/>
<path d="M0 0 C1.875 1.0625 1.875 1.0625 3 3 C2.66666667 9.33333333 2.66666667 9.33333333 0 12 C-2.9375 12.375 -2.9375 12.375 -6 12 C-8.34117508 9.89294243 -8.90930872 8.53119178 -9.4375 5.4375 C-9 3 -9 3 -7.3125 1.1875 C-4.57172952 -0.21992268 -3.04026376 -0.46773289 0 0 Z " fill="#5B6D8A" transform="translate(1310,447)"/>
<path d="M0 0 C1 1 1 1 1.25 4.375 C1 8 1 8 -0.0625 10 C-3.19241926 11.6154422 -5.68174093 10.79884015 -9 10 C-10.39935013 7.20129973 -10.25265405 5.09501208 -10 2 C-7.64880534 -2.28747261 -4.22461819 -0.93880404 0 0 Z " fill="#686A7D" transform="translate(1171,448)"/>
<path d="M0 0 C1.8125 1.125 1.8125 1.125 3 3 C3.39310741 6.14485925 3.47555213 8.13281671 1.9375 10.9375 C-1.15212727 12.63181173 -3.67217418 11.73951685 -7 11 C-8.89128342 9.10871658 -8.2366852 6.42932274 -8.328125 3.91015625 C-8.16570312 2.96462891 -8.16570312 2.96462891 -8 2 C-4.76746204 -0.15502531 -3.74849077 -0.46856135 0 0 Z " fill="#60708E" transform="translate(1116,447)"/>
<path d="M0 0 C1 1 1 1 1.25 4.375 C1 8 1 8 -0.1875 9.9375 C-2.66049093 11.38718434 -4.17884512 11.42317323 -7 11 C-8.8125 9.875 -8.8125 9.875 -10 8 C-10.39310741 4.85514075 -10.47555213 2.86718329 -8.9375 0.0625 C-5.84787273 -1.63181173 -3.32782582 -0.73951685 0 0 Z " fill="#6D6B78" transform="translate(964,448)"/>
<path d="M0 0 C1 1 1 1 1.25 4.375 C1 8 1 8 -0.1875 9.9375 C-2.66049093 11.38718434 -4.17884512 11.42317323 -7 11 C-8.8125 9.875 -8.8125 9.875 -10 8 C-10.39310741 4.85514075 -10.47555213 2.86718329 -8.9375 0.0625 C-5.84787273 -1.63181173 -3.32782582 -0.73951685 0 0 Z " fill="#6E6C78" transform="translate(678,448)"/>
<path d="M0 0 C0.99 0 1.98 0 3 0 C3.33 1.65 3.66 3.3 4 5 C4.804375 4.979375 5.60875 4.95875 6.4375 4.9375 C9 5 9 5 10 6 C10.1875 9.4375 10.1875 9.4375 10 13 C8 15 8 15 6.0546875 15.1953125 C4.03645833 15.13020833 2.01822917 15.06510417 0 15 C0 10.05 0 5.1 0 0 Z " fill="#E1EFFE" transform="translate(986,531)"/>
<path d="M0 0 C0.66 0 1.32 0 2 0 C2 4.95 2 9.9 2 15 C-4.0546875 15.1953125 -4.0546875 15.1953125 -6 15 C-6.66 14.34 -7.32 13.68 -8 13 C-7.42307692 6.42307692 -7.42307692 6.42307692 -6 5 C-4.33382885 4.95936168 -2.66611905 4.957279 -1 5 C-0.67 3.35 -0.34 1.7 0 0 Z " fill="#E3EDFE" transform="translate(1035,531)"/>
<path d="M0 0 C0.99 0 1.98 0 3 0 C4.65 3.63 6.3 7.26 8 11 C9.98 7.37 11.96 3.74 14 0 C14.66 0 15.32 0 16 0 C16 5.28 16 10.56 16 16 C15.67 16 15.34 16 15 16 C14.67 12.7 14.34 9.4 14 6 C12.35 9.3 10.7 12.6 9 16 C5.62358918 12.62358918 4.72549695 10.35482564 3 6 C2.67 9.3 2.34 12.6 2 16 C1.34 16 0.68 16 0 16 C0 10.72 0 5.44 0 0 Z " fill="#616476" transform="translate(571,443)"/>
<path d="M0 0 C1.175625 0.0825 2.35125 0.165 3.5625 0.25 C5.5625 3.25 5.5625 3.25 5.25 6.375 C4.5625 9.25 4.5625 9.25 3.5625 10.25 C0.125 10.4375 0.125 10.4375 -3.4375 10.25 C-4.0975 9.59 -4.7575 8.93 -5.4375 8.25 C-4.74408106 0.34502408 -4.74408106 0.34502408 0 0 Z " fill="#D4E8FE" transform="translate(928.4375,535.75)"/>
<path d="M0 0 C0 0.99 0 1.98 0 3 C-2.31 3.33 -4.62 3.66 -7 4 C-7 5.98 -7 7.96 -7 10 C-4.525 10.99 -4.525 10.99 -2 12 C-2 10.68 -2 9.36 -2 8 C-2.99 8 -3.98 8 -5 8 C-5 7.34 -5 6.68 -5 6 C-3.02 6 -1.04 6 1 6 C1.04241723 8.33294775 1.04092937 10.66702567 1 13 C0 14 0 14 -3.875 14.25 C-6.36195054 14.19651719 -7.75879953 14.12060023 -10 13 C-11.63208836 9.73582328 -11.65289471 6.56124386 -11 3 C-8.03489811 -0.79533041 -4.53276877 -0.26150589 0 0 Z " fill="#E5EBFE" transform="translate(894,532)"/>
<path d="M0 0 C0.66 0 1.32 0 2 0 C2.67220351 1.93558599 3.33758077 3.87354372 4 5.8125 C4.556875 7.43091797 4.556875 7.43091797 5.125 9.08203125 C6 12 6 12 6 15 C2.7 15 -0.6 15 -4 15 C-3.52396226 12.87429688 -3.04407402 10.74945573 -2.5625 8.625 C-2.29566406 7.44164062 -2.02882813 6.25828125 -1.75390625 5.0390625 C-1 2 -1 2 0 0 Z " fill="#D6DDEF" transform="translate(1314,366)"/>
<path d="M0 0 C3 0.25 3 0.25 5 2.25 C5.25 5.25 5.25 5.25 5 8.25 C3 10.25 3 10.25 0 10.5 C-3 10.25 -3 10.25 -5 8.25 C-5.25 5.25 -5.25 5.25 -5 2.25 C-3 0.25 -3 0.25 0 0 Z " fill="#F1F4FE" transform="translate(1003,535.75)"/>
<path d="M0 0 C3 0.25 3 0.25 5 2.25 C5.25 5.25 5.25 5.25 5 8.25 C3 10.25 3 10.25 0 10.5 C-3 10.25 -3 10.25 -5 8.25 C-5.25 5.25 -5.25 5.25 -5 2.25 C-3 0.25 -3 0.25 0 0 Z " fill="#F1F4FE" transform="translate(902,535.75)"/>
<path d="M0 0 C0.33 0.99 0.66 1.98 1 3 C2.65 3.33 4.3 3.66 6 4 C6 7.3 6 10.6 6 14 C1.25 15.125 1.25 15.125 -1 14 C-1 11.03 -1 8.06 -1 5 C-1.66 5 -2.32 5 -3 5 C-3 4.34 -3 3.68 -3 3 C-2.01 3 -1.02 3 0 3 C0 2.01 0 1.02 0 0 Z " fill="#CFE3FE" transform="translate(1083,444)"/>
<path d="M0 0 C2.5625 0.3125 2.5625 0.3125 4.375 1.5625 C5.5625 3.3125 5.5625 3.3125 5.5625 7.3125 C2.9225 7.3125 0.2825 7.3125 -2.4375 7.3125 C-2.4375 8.3025 -2.4375 9.2925 -2.4375 10.3125 C1.0275 9.8175 1.0275 9.8175 4.5625 9.3125 C4.5625 9.9725 4.5625 10.6325 4.5625 11.3125 C2.2525 11.6425 -0.0575 11.9725 -2.4375 12.3125 C-4 10.6875 -4 10.6875 -5.4375 8.3125 C-5.17499489 3.93741491 -4.90351472 0.62865573 0 0 Z " fill="#828B9A" transform="translate(1033.4375,446.6875)"/>
<path d="M0 0 C2.5625 0.3125 2.5625 0.3125 4.375 1.5625 C5.5625 3.3125 5.5625 3.3125 5.5625 7.3125 C2.9225 7.3125 0.2825 7.3125 -2.4375 7.3125 C-2.4375 8.3025 -2.4375 9.2925 -2.4375 10.3125 C1.0275 9.8175 1.0275 9.8175 4.5625 9.3125 C4.5625 9.9725 4.5625 10.6325 4.5625 11.3125 C2.2525 11.6425 -0.0575 11.9725 -2.4375 12.3125 C-4 10.6875 -4 10.6875 -5.4375 8.3125 C-5.17499489 3.93741491 -4.90351472 0.62865573 0 0 Z " fill="#828B9A" transform="translate(644.4375,446.6875)"/>
<path d="M0 0 C2.375 -0.125 2.375 -0.125 5 0 C7 2 7 2 7.1953125 4.3828125 C7.17210937 5.28773438 7.14890625 6.19265625 7.125 7.125 C7.10695313 8.03507812 7.08890625 8.94515625 7.0703125 9.8828125 C7.04710937 10.58148438 7.02390625 11.28015625 7 12 C0.84765625 12.09765625 0.84765625 12.09765625 -1 12 C-2 11 -2 11 -2.25 8.5625 C-2.1675 7.716875 -2.085 6.87125 -2 6 C1 4 1 4 4 4 C4 3.34 4 2.68 4 2 C2.35 2 0.7 2 -1 2 C-0.67 1.34 -0.34 0.68 0 0 Z " fill="#5F7188" transform="translate(913,447)"/>
<path d="M0 0 C2.375 -0.125 2.375 -0.125 5 0 C7 2 7 2 7.1953125 4.3828125 C7.17210937 5.28773438 7.14890625 6.19265625 7.125 7.125 C7.10695313 8.03507812 7.08890625 8.94515625 7.0703125 9.8828125 C7.04710937 10.58148438 7.02390625 11.28015625 7 12 C0.84765625 12.09765625 0.84765625 12.09765625 -1 12 C-2 11 -2 11 -2.25 8.5625 C-2.1675 7.716875 -2.085 6.87125 -2 6 C1 4 1 4 4 4 C4 3.34 4 2.68 4 2 C2.35 2 0.7 2 -1 2 C-0.67 1.34 -0.34 0.68 0 0 Z " fill="#607188" transform="translate(718,447)"/>
<path d="M0 0 C2.375 -0.125 2.375 -0.125 5 0 C7 2 7 2 7.1953125 4.3828125 C7.17210937 5.28773438 7.14890625 6.19265625 7.125 7.125 C7.10695313 8.03507812 7.08890625 8.94515625 7.0703125 9.8828125 C7.04710937 10.58148438 7.02390625 11.28015625 7 12 C0.84765625 12.09765625 0.84765625 12.09765625 -1 12 C-2 11 -2 11 -2.25 8.5625 C-2.1675 7.716875 -2.085 6.87125 -2 6 C1 4 1 4 4 4 C4 3.34 4 2.68 4 2 C2.35 2 0.7 2 -1 2 C-0.67 1.34 -0.34 0.68 0 0 Z " fill="#7D8B9D" transform="translate(617,447)"/>
<path d="M0 0 C2.375 -0.125 2.375 -0.125 5 0 C7 2 7 2 7.1953125 4.3828125 C7.17210937 5.28773438 7.14890625 6.19265625 7.125 7.125 C7.10695313 8.03507812 7.08890625 8.94515625 7.0703125 9.8828125 C7.04710937 10.58148438 7.02390625 11.28015625 7 12 C0.84765625 12.09765625 0.84765625 12.09765625 -1 12 C-2 11 -2 11 -2.25 8.5625 C-2.1675 7.716875 -2.085 6.87125 -2 6 C1 4 1 4 5 4 C5 3.34 5 2.68 5 2 C3.02 2 1.04 2 -1 2 C-0.67 1.34 -0.34 0.68 0 0 Z " fill="#6C7381" transform="translate(786,447)"/>
<path d="M0 0 C2.375 -0.125 2.375 -0.125 5 0 C7 2 7 2 7.1953125 4.3828125 C7.17210937 5.28773438 7.14890625 6.19265625 7.125 7.125 C7.10695313 8.03507812 7.08890625 8.94515625 7.0703125 9.8828125 C7.04710937 10.58148438 7.02390625 11.28015625 7 12 C0.25 12.125 0.25 12.125 -2 11 C-2.1875 8.625 -2.1875 8.625 -2 6 C1 4 1 4 5 4 C5 3.34 5 2.68 5 2 C3.02 2 1.04 2 -1 2 C-0.67 1.34 -0.34 0.68 0 0 Z " fill="#6A6A79" transform="translate(849,447)"/>
<path d="M0 0 C2.375 -0.125 2.375 -0.125 5 0 C7 2 7 2 7.1953125 4.3828125 C7.17210937 5.28773438 7.14890625 6.19265625 7.125 7.125 C7.10695313 8.03507812 7.08890625 8.94515625 7.0703125 9.8828125 C7.04710937 10.58148438 7.02390625 11.28015625 7 12 C0.25 12.125 0.25 12.125 -2 11 C-2.1875 8.625 -2.1875 8.625 -2 6 C1 4 1 4 5 4 C5 3.34 5 2.68 5 2 C3.02 2 1.04 2 -1 2 C-0.67 1.34 -0.34 0.68 0 0 Z " fill="#6A6A79" transform="translate(825,447)"/>
<path d="M0 0 C2.375 -0.125 2.375 -0.125 5 0 C7 2 7 2 7.1953125 4.3828125 C7.17210937 5.28773438 7.14890625 6.19265625 7.125 7.125 C7.10695313 8.03507812 7.08890625 8.94515625 7.0703125 9.8828125 C7.04710937 10.58148438 7.02390625 11.28015625 7 12 C0.84765625 12.09765625 0.84765625 12.09765625 -1 12 C-2 11 -2 11 -2.25 8.5625 C-2.1675 7.716875 -2.085 6.87125 -2 6 C1 4 1 4 5 4 C5 3.34 5 2.68 5 2 C3.02 2 1.04 2 -1 2 C-0.67 1.34 -0.34 0.68 0 0 Z " fill="#5C6F88" transform="translate(1317,447)"/>
<path d="M0 0 C0.99 0 1.98 0 3 0 C3.33 1.65 3.66 3.3 4 5 C4.804375 5.144375 5.60875 5.28875 6.4375 5.4375 C9 6 9 6 10 7 C10.14115161 9.67058851 10.04247107 12.32432238 10 15 C9.01 15 8.02 15 7 15 C7 12.36 7 9.72 7 7 C6.01 7.33 5.02 7.66 4 8 C3.67 10.31 3.34 12.62 3 15 C2.01 15 1.02 15 0 15 C0 10.05 0 5.1 0 0 Z " fill="#D6EEFE" transform="translate(974,531)"/>
<path d="M0 0 C2 2 2 2 2.125 4.625 C2.08375 5.40875 2.0425 6.1925 2 7 C-0.64 7 -3.28 7 -6 7 C-5.67 7.66 -5.34 8.32 -5 9 C-1.97065509 9.65772428 -1.97065509 9.65772428 1 10 C0.67 10.66 0.34 11.32 0 12 C-2.3431213 11.74438677 -4.67843403 11.40729228 -7 11 C-8.39935013 8.20129973 -8.25265405 6.09501208 -8 3 C-5.8975876 -0.31959853 -3.76753493 -0.4830173 0 0 Z " fill="#808595" transform="translate(1198,447)"/>
<path d="M0 0 C0.99 0.33 1.98 0.66 3 1 C3.33 2.65 3.66 4.3 4 6 C6.1385485 3.8614515 6.42655063 2.86724686 7 0 C7.99 0 8.98 0 10 0 C10.33 2.64 10.66 5.28 11 8 C11.66 8 12.32 8 13 8 C13.33 5.36 13.66 2.72 14 0 C14.66 0 15.32 0 16 0 C15.01 3.96 14.02 7.92 13 12 C12.01 12 11.02 12 10 12 C9.34 10.02 8.68 8.04 8 6 C7.34 7.98 6.68 9.96 6 12 C5.01 12 4.02 12 3 12 C2.01 8.04 1.02 4.08 0 0 Z " fill="#6B7089" transform="translate(1173,447)"/>
<path d="M0 0 C0.99 0 1.98 0 3 0 C3 0.66 3 1.32 3 2 C2.01 2 1.02 2 0 2 C0 2.99 0 3.98 0 5 C0.99 5 1.98 5 3 5 C3 5.66 3 6.32 3 7 C2.01 7 1.02 7 0 7 C0 10.3 0 13.6 0 17 C-0.66 17 -1.32 17 -2 17 C-2 13.7 -2 10.4 -2 7 C-3.65 7.33 -5.3 7.66 -7 8 C-7.33 10.97 -7.66 13.94 -8 17 C-8.66 17 -9.32 17 -10 17 C-10 13.04 -10 9.08 -10 5 C-7.36 5 -4.72 5 -2 5 C-1.855625 4.360625 -1.71125 3.72125 -1.5625 3.0625 C-1 1 -1 1 0 0 Z " fill="#6B6E7D" transform="translate(1213,442)"/>
<path d="M0 0 C1.66611905 -0.042721 3.33382885 -0.04063832 5 0 C6 1 6 1 6.09765625 3.50390625 C6.08605469 4.51324219 6.07445312 5.52257812 6.0625 6.5625 C6.05347656 7.57441406 6.04445313 8.58632813 6.03515625 9.62890625 C6.02355469 10.41136719 6.01195312 11.19382812 6 12 C2.625 12.125 2.625 12.125 -1 12 C-1.66 11.34 -2.32 10.68 -3 10 C-2.63318342 7.06546739 -2.13562754 6.13562754 0 4 C1.32 4 2.64 4 4 4 C4 3.34 4 2.68 4 2 C2.35 2 0.7 2 -1 2 C-0.67 1.34 -0.34 0.68 0 0 Z " fill="#787478" transform="translate(1257,447)"/>
<path d="M0 0 C1.66611905 -0.042721 3.33382885 -0.04063832 5 0 C6 1 6 1 6.09765625 3.50390625 C6.08605469 4.51324219 6.07445312 5.52257812 6.0625 6.5625 C6.05347656 7.57441406 6.04445313 8.58632813 6.03515625 9.62890625 C6.02355469 10.41136719 6.01195312 11.19382812 6 12 C2.625 12.125 2.625 12.125 -1 12 C-1.66 11.34 -2.32 10.68 -3 10 C-2.63318342 7.06546739 -2.13562754 6.13562754 0 4 C1.32 4 2.64 4 4 4 C4 3.34 4 2.68 4 2 C2.35 2 0.7 2 -1 2 C-0.67 1.34 -0.34 0.68 0 0 Z " fill="#797578" transform="translate(991,447)"/>
<path d="M0 0 C1.66611905 -0.042721 3.33382885 -0.04063832 5 0 C6 1 6 1 6.09765625 3.50390625 C6.08605469 4.51324219 6.07445312 5.52257812 6.0625 6.5625 C6.05347656 7.57441406 6.04445313 8.58632813 6.03515625 9.62890625 C6.02355469 10.41136719 6.01195312 11.19382812 6 12 C2.625 12.125 2.625 12.125 -1 12 C-1.66 11.34 -2.32 10.68 -3 10 C-2.63318342 7.06546739 -2.13562754 6.13562754 0 4 C1.32 4 2.64 4 4 4 C4 3.34 4 2.68 4 2 C2.35 2 0.7 2 -1 2 C-0.67 1.34 -0.34 0.68 0 0 Z " fill="#7A7678" transform="translate(593,447)"/>
<path d="M0 0 C0.66 0 1.32 0 2 0 C2.33 2.64 2.66 5.28 3 8 C3.66 8 4.32 8 5 8 C5.33 5.69 5.66 3.38 6 1 C6.99 0.67 7.98 0.34 9 0 C9.66 1.98 10.32 3.96 11 6 C11.99 4.02 12.98 2.04 14 0 C15.60226148 4.00565371 14.47694566 7.08609399 13 11 C12.01 11.33 11.02 11.66 10 12 C9.34 9.69 8.68 7.38 8 5 C7.01 7.31 6.02 9.62 5 12 C4.34 12 3.68 12 3 12 C2.49440092 10.56445975 1.9957251 9.1264798 1.5 7.6875 C1.2215625 6.88699219 0.943125 6.08648437 0.65625 5.26171875 C0 3 0 3 0 0 Z " fill="#69728F" transform="translate(1059,447)"/>
<path d="M0 0 C1.99954746 -0.04254356 4.00041636 -0.04080783 6 0 C7 1 7 1 7.09765625 3.06640625 C7.08605469 3.89011719 7.07445312 4.71382812 7.0625 5.5625 C7.05347656 6.38878906 7.04445313 7.21507812 7.03515625 8.06640625 C7.02355469 8.70449219 7.01195312 9.34257813 7 10 C4.36 10 1.72 10 -1 10 C-1.625 8.125 -1.625 8.125 -2 6 C-1.34 5.34 -0.68 4.68 0 4 C1.32 4 2.64 4 4 4 C4 3.34 4 2.68 4 2 C2.35 2.33 0.7 2.66 -1 3 C-0.67 2.01 -0.34 1.02 0 0 Z " fill="#BDD6FE" transform="translate(1011,536)"/>
<path d="M0 0 C2.875 -0.125 2.875 -0.125 6 0 C8 2 8 2 8.1953125 3.9453125 C8.13020833 5.96354167 8.06510417 7.98177083 8 10 C5.36 10 2.72 10 0 10 C-0.33 8.35 -0.66 6.7 -1 5 C0.98 4.67 2.96 4.34 5 4 C5 3.34 5 2.68 5 2 C3.35 2.33 1.7 2.66 0 3 C0 2.01 0 1.02 0 0 Z " fill="#D8DFFE" transform="translate(956,536)"/>
<path d="M0 0 C-0.75 5.75 -0.75 5.75 -3 8 C-6.0625 8.1875 -6.0625 8.1875 -9 8 C-10 7 -10 7 -10.25 4.5625 C-10.1675 3.716875 -10.085 2.87125 -10 2 C-6.3558226 -0.4294516 -4.28758728 -0.16179575 0 0 Z " fill="#D8DFF0" transform="translate(1205,384)"/>
<path d="M0 0 C-0.75 5.75 -0.75 5.75 -3 8 C-6.0625 8.1875 -6.0625 8.1875 -9 8 C-10 7 -10 7 -10.25 4.5625 C-10.1675 3.716875 -10.085 2.87125 -10 2 C-6.3558226 -0.4294516 -4.28758728 -0.16179575 0 0 Z " fill="#D9E0F0" transform="translate(1037,384)"/>
<path d="M0 0 C0.66 0 1.32 0 2 0 C2 1.98 2 3.96 2 6 C2.94875 5.79375 3.8975 5.5875 4.875 5.375 C6.421875 5.189375 6.421875 5.189375 8 5 C10 7 10 7 10.1953125 9.3828125 C10.16050781 10.74019531 10.16050781 10.74019531 10.125 12.125 C10.10695313 13.03507812 10.08890625 13.94515625 10.0703125 14.8828125 C10.04710937 15.58148438 10.02390625 16.28015625 10 17 C9.34 17 8.68 17 8 17 C7.67 14.03 7.34 11.06 7 8 C5.68 8 4.36 8 3 8 C2.67 10.97 2.34 13.94 2 17 C1.34 17 0.68 17 0 17 C0 11.39 0 5.78 0 0 Z " fill="#726278" transform="translate(1276,442)"/>
<path d="M0 0 C0.66 0 1.32 0 2 0 C2.33 1.65 2.66 3.3 3 5 C3.804375 5.144375 4.60875 5.28875 5.4375 5.4375 C8 6 8 6 9 7 C9.07205511 8.68608966 9.08386068 10.37500659 9.0625 12.0625 C9.05347656 12.98160156 9.04445313 13.90070313 9.03515625 14.84765625 C9.02355469 15.55792969 9.01195312 16.26820313 9 17 C8.34 17 7.68 17 7 17 C7 13.7 7 10.4 7 7 C5.68 7.33 4.36 7.66 3 8 C2.67 10.97 2.34 13.94 2 17 C1.34 17 0.68 17 0 17 C0 11.39 0 5.78 0 0 Z " fill="#63728A" transform="translate(1090,442)"/>
<path d="M0 0 C0.66 0 1.32 0 2 0 C2.33 2.97 2.66 5.94 3 9 C4.32 7.68 5.64 6.36 7 5 C7.66 5.33 8.32 5.66 9 6 C8.484375 6.4125 7.96875 6.825 7.4375 7.25 C5.77030475 8.87337657 5.77030475 8.87337657 6.125 10.9375 C7.11579147 13.27293703 8.3939811 15.04484656 10 17 C6.73045798 16.43628586 5.17424117 15.50037734 3 13 C2.67 14.32 2.34 15.64 2 17 C1.34 17 0.68 17 0 17 C0 11.39 0 5.78 0 0 Z " fill="#7F706E" transform="translate(806,442)"/>
<path d="M0 0 C0.66 0 1.32 0 2 0 C2.33 2.97 2.66 5.94 3 9 C4.32 7.68 5.64 6.36 7 5 C7.66 5.33 8.32 5.66 9 6 C8.484375 6.4125 7.96875 6.825 7.4375 7.25 C5.77030475 8.87337657 5.77030475 8.87337657 6.125 10.9375 C7.11579147 13.27293703 8.3939811 15.04484656 10 17 C6.73045798 16.43628586 5.17424117 15.50037734 3 13 C2.67 14.32 2.34 15.64 2 17 C1.34 17 0.68 17 0 17 C0 11.39 0 5.78 0 0 Z " fill="#7F706E" transform="translate(737,442)"/>
<path d="M0 0 C2.4375 0.75 2.4375 0.75 4.4375 2.75 C4.4375 4.07 4.4375 5.39 4.4375 6.75 C0.8075 6.75 -2.8225 6.75 -6.5625 6.75 C-6.2325 5.1 -5.9025 3.45 -5.5625 1.75 C-2.5625 -0.25 -2.5625 -0.25 0 0 Z " fill="#DAE1F0" transform="translate(586.5625,373.25)"/>
<path d="M0 0 C5.56818182 0.56818182 5.56818182 0.56818182 7 2 C7 3.65 7 5.3 7 7 C3.37 7 -0.26 7 -4 7 C-2 2 -2 2 0 0 Z " fill="#DBE2F2" transform="translate(938,373)"/>
<path d="M0 0 C5.56818182 0.56818182 5.56818182 0.56818182 7 2 C7 3.65 7 5.3 7 7 C3.37 7 -0.26 7 -4 7 C-2 2 -2 2 0 0 Z " fill="#DBE3F2" transform="translate(753,373)"/>
<path d="M0 0 C5.875 0.875 5.875 0.875 7 2 C6.71269945 4.33944736 6.38063221 6.6739143 6 9 C4.02 9.33 2.04 9.66 0 10 C0 6.7 0 3.4 0 0 Z " fill="#2B66FC" transform="translate(944,534)"/>
<path d="M0 0 C0.66 0 1.32 0 2 0 C2.99 2.31 3.98 4.62 5 7 C5.99 4.69 6.98 2.38 8 0 C8.66 0.33 9.32 0.66 10 1 C9.12803306 3.49004991 8.22964148 5.96413312 7.3125 8.4375 C7.06822266 9.14455078 6.82394531 9.85160156 6.57226562 10.58007812 C5.80078125 12.62109375 5.80078125 12.62109375 4 16 C1.29296875 16.97265625 1.29296875 16.97265625 -1 17 C-1 16.34 -1 15.68 -1 15 C-0.01 14.67 0.98 14.34 2 14 C1.43393721 9.30976546 0.81462495 4.65499974 0 0 Z " fill="#727486" transform="translate(657,447)"/>
<path d="M0 0 C0.66 0 1.32 0 2 0 C2.99 2.31 3.98 4.62 5 7 C5.99 4.69 6.98 2.38 8 0 C8.66 0.33 9.32 0.66 10 1 C9.12803306 3.49004991 8.22964148 5.96413312 7.3125 8.4375 C7.06822266 9.14455078 6.82394531 9.85160156 6.57226562 10.58007812 C5.80078125 12.62109375 5.80078125 12.62109375 4 16 C1.29296875 16.97265625 1.29296875 16.97265625 -1 17 C-1 16.34 -1 15.68 -1 15 C-0.01 14.67 0.98 14.34 2 14 C1.43393721 9.30976546 0.81462495 4.65499974 0 0 Z " fill="#767587" transform="translate(864,447)"/>
<path d="M0 0 C0.66 0 1.32 0 2 0 C2.33 2.97 2.66 5.94 3 9 C4.32 9 5.64 9 7 9 C7.33 6.03 7.66 3.06 8 0 C8.66 0 9.32 0 10 0 C10 3.96 10 7.92 10 12 C8.72125 12.061875 7.4425 12.12375 6.125 12.1875 C5.40570312 12.22230469 4.68640625 12.25710938 3.9453125 12.29296875 C3.30335937 12.19628906 2.66140625 12.09960938 2 12 C-0.13586678 8.79619983 -0.23132175 7.98060033 -0.125 4.3125 C-0.10695313 3.50425781 -0.08890625 2.69601562 -0.0703125 1.86328125 C-0.04710937 1.24839844 -0.02390625 0.63351562 0 0 Z " fill="#766D78" transform="translate(1217,447)"/>
<path d="M0 0 C0.66 0 1.32 0 2 0 C2.33 2.97 2.66 5.94 3 9 C4.32 9 5.64 9 7 9 C7.33 6.03 7.66 3.06 8 0 C8.66 0 9.32 0 10 0 C10 3.96 10 7.92 10 12 C8.72125 12.061875 7.4425 12.12375 6.125 12.1875 C5.40570312 12.22230469 4.68640625 12.25710938 3.9453125 12.29296875 C3.30335937 12.19628906 2.66140625 12.09960938 2 12 C-0.13586678 8.79619983 -0.23132175 7.98060033 -0.125 4.3125 C-0.10695313 3.50425781 -0.08890625 2.69601562 -0.0703125 1.86328125 C-0.04710937 1.24839844 -0.02390625 0.63351562 0 0 Z " fill="#766D78" transform="translate(1121,447)"/>
<path d="M0 0 C6.0546875 -0.1953125 6.0546875 -0.1953125 8 0 C10 2 10 2 10.1953125 4.3828125 C10.17210937 5.28773438 10.14890625 6.19265625 10.125 7.125 C10.10695313 8.03507812 10.08890625 8.94515625 10.0703125 9.8828125 C10.04710937 10.58148438 10.02390625 11.28015625 10 12 C9.34 12 8.68 12 8 12 C7.67 9.03 7.34 6.06 7 3 C5.68 3 4.36 3 3 3 C2.67 5.97 2.34 8.94 2 12 C1.34 12 0.68 12 0 12 C0 8.04 0 4.08 0 0 Z " fill="#706B7B" transform="translate(835,447)"/>
<path d="M0 0 C6.75 -0.125 6.75 -0.125 9 1 C9 4.63 9 8.26 9 12 C8.34 12 7.68 12 7 12 C7 8.7 7 5.4 7 2 C5.68 2.33 4.36 2.66 3 3 C2.67 5.97 2.34 8.94 2 12 C1.34 12 0.68 12 0 12 C0 8.04 0 4.08 0 0 Z " fill="#657187" transform="translate(1001,447)"/>
<path d="M0 0 C6.75 -0.125 6.75 -0.125 9 1 C9 4.63 9 8.26 9 12 C8.34 12 7.68 12 7 12 C7 8.7 7 5.4 7 2 C5.68 2.33 4.36 2.66 3 3 C2.67 5.97 2.34 8.94 2 12 C1.34 12 0.68 12 0 12 C0 8.04 0 4.08 0 0 Z " fill="#657287" transform="translate(603,447)"/>
<path d="M0 0 C6.75 -0.125 6.75 -0.125 9 1 C9 4.63 9 8.26 9 12 C8.34 12 7.68 12 7 12 C7 8.7 7 5.4 7 2 C5.68 2.33 4.36 2.66 3 3 C2.67 5.97 2.34 8.94 2 12 C1.34 12 0.68 12 0 12 C0 8.04 0 4.08 0 0 Z " fill="#6B7080" transform="translate(923,447)"/>
<path d="M0 0 C2.5 0.125 2.5 0.125 3.5 1.125 C3.625 4.125 3.625 4.125 3.5 7.125 C2.5 8.125 2.5 8.125 0.0625 8.3125 C-2.5 8.125 -2.5 8.125 -4.5 6.125 C-3.77607362 0.18880368 -3.77607362 0.18880368 0 0 Z " fill="#DCE2EF" transform="translate(1307.5,448.875)"/>
<path d="M0 0 C2.97 0 5.94 0 9 0 C7.07119658 3.40755272 5.1723491 6.74147635 3 10 C4.98 10 6.96 10 9 10 C9 10.66 9 11.32 9 12 C5.7 12 2.4 12 -1 12 C0.98 8.7 2.96 5.4 5 2 C3.35 2 1.7 2 0 2 C0 1.34 0 0.68 0 0 Z " fill="#696F7F" transform="translate(1018,447)"/>
<path d="M0 0 C2.5 0.125 2.5 0.125 3.5 1.125 C3.625 4.125 3.625 4.125 3.5 7.125 C2.5 8.125 2.5 8.125 0 8.25 C-2.5 8.125 -2.5 8.125 -3.5 7.125 C-3.625 4.125 -3.625 4.125 -3.5 1.125 C-2.5 0.125 -2.5 0.125 0 0 Z " fill="#DAE4F0" transform="translate(1246.5,448.875)"/>
<path d="M0 0 C2.5 0.125 2.5 0.125 3.5 1.125 C3.625 4.125 3.625 4.125 3.5 7.125 C2.5 8.125 2.5 8.125 0 8.25 C-2.5 8.125 -2.5 8.125 -3.5 7.125 C-3.625 4.125 -3.625 4.125 -3.5 1.125 C-2.5 0.125 -2.5 0.125 0 0 Z " fill="#DEEAFA" transform="translate(1166.5,448.875)"/>
<path d="M0 0 C2.5 0.125 2.5 0.125 3.5 1.125 C3.625 4.125 3.625 4.125 3.5 7.125 C2.5 8.125 2.5 8.125 0 8.25 C-2.5 8.125 -2.5 8.125 -3.5 7.125 C-3.625 4.125 -3.625 4.125 -3.5 1.125 C-2.5 0.125 -2.5 0.125 0 0 Z " fill="#D6E3F1" transform="translate(1153.5,448.875)"/>
<path d="M0 0 C2.5 0.125 2.5 0.125 3.5 1.125 C3.625 4.125 3.625 4.125 3.5 7.125 C2.5 8.125 2.5 8.125 0 8.25 C-2.5 8.125 -2.5 8.125 -3.5 7.125 C-3.625 4.125 -3.625 4.125 -3.5 1.125 C-2.5 0.125 -2.5 0.125 0 0 Z " fill="#E3E9F2" transform="translate(1113.5,448.875)"/>
<path d="M0 0 C2.5 0.125 2.5 0.125 3.5 1.125 C3.625 4.125 3.625 4.125 3.5 7.125 C2.5 8.125 2.5 8.125 0 8.25 C-2.5 8.125 -2.5 8.125 -3.5 7.125 C-3.625 4.125 -3.625 4.125 -3.5 1.125 C-2.5 0.125 -2.5 0.125 0 0 Z " fill="#DBE4F0" transform="translate(1045.5,448.875)"/>
<path d="M0 0 C2.5 0.125 2.5 0.125 3.5 1.125 C3.625 4.125 3.625 4.125 3.5 7.125 C2.5 8.125 2.5 8.125 0 8.25 C-2.5 8.125 -2.5 8.125 -3.5 7.125 C-3.625 4.125 -3.625 4.125 -3.5 1.125 C-2.5 0.125 -2.5 0.125 0 0 Z " fill="#DBE4EF" transform="translate(980.5,448.875)"/>
<path d="M0 0 C2.5 0.125 2.5 0.125 3.5 1.125 C3.625 4.125 3.625 4.125 3.5 7.125 C2.5 8.125 2.5 8.125 0 8.25 C-2.5 8.125 -2.5 8.125 -3.5 7.125 C-3.625 4.125 -3.625 4.125 -3.5 1.125 C-2.5 0.125 -2.5 0.125 0 0 Z " fill="#DBEAFB" transform="translate(959.5,448.875)"/>
<path d="M0 0 C2.5 0.125 2.5 0.125 3.5 1.125 C3.625 4.125 3.625 4.125 3.5 7.125 C2.5 8.125 2.5 8.125 0 8.25 C-2.5 8.125 -2.5 8.125 -3.5 7.125 C-3.625 4.125 -3.625 4.125 -3.5 1.125 C-2.5 0.125 -2.5 0.125 0 0 Z " fill="#DCEBFB" transform="translate(673.5,448.875)"/>
<path d="M0 0 C2.5 0.125 2.5 0.125 3.5 1.125 C3.625 4.125 3.625 4.125 3.5 7.125 C2.5 8.125 2.5 8.125 0 8.25 C-2.5 8.125 -2.5 8.125 -3.5 7.125 C-3.625 4.125 -3.625 4.125 -3.5 1.125 C-2.5 0.125 -2.5 0.125 0 0 Z " fill="#DCE6EF" transform="translate(631.5,448.875)"/>
<path d="M0 0 C2.5 0.125 2.5 0.125 3.5 1.125 C3.21269945 3.46444736 2.88063221 5.7989143 2.5 8.125 C0.83388095 8.167721 -0.83382885 8.16563832 -2.5 8.125 C-3.5 7.125 -3.5 7.125 -3.625 4.125 C-3.46033403 0.1730167 -3.46033403 0.1730167 0 0 Z " fill="#DDE3EF" transform="translate(1339.5,448.875)"/>
<path d="M0 0 C2.5 0.125 2.5 0.125 3.5 1.125 C3.21269945 3.46444736 2.88063221 5.7989143 2.5 8.125 C0.83388095 8.167721 -0.83382885 8.16563832 -2.5 8.125 C-3.5 7.125 -3.5 7.125 -3.625 4.125 C-3.46033403 0.1730167 -3.46033403 0.1730167 0 0 Z " fill="#DFE5EF" transform="translate(940.5,448.875)"/>
<path d="M0 0 C1.2065625 0.0309375 1.2065625 0.0309375 2.4375 0.0625 C2.4375 0.7225 2.4375 1.3825 2.4375 2.0625 C1.4475 2.3925 0.4575 2.7225 -0.5625 3.0625 C0.0975 3.495625 0.7575 3.92875 1.4375 4.375 C2.0975 4.931875 2.7575 5.48875 3.4375 6.0625 C3.4375 7.0525 3.4375 8.0425 3.4375 9.0625 C0.72870665 10.41689668 -1.57183268 10.12751451 -4.5625 10.0625 C-4.2325 9.0725 -3.9025 8.0825 -3.5625 7.0625 C-1.5825 7.5575 -1.5825 7.5575 0.4375 8.0625 C0.4375 7.4025 0.4375 6.7425 0.4375 6.0625 C-0.8825 5.7325 -2.2025 5.4025 -3.5625 5.0625 C-3.5625 0.08689024 -3.5625 0.08689024 0 0 Z " fill="#E5EEFE" transform="translate(969.5625,535.9375)"/>
<path d="M0 0 C1.2065625 0.0309375 1.2065625 0.0309375 2.4375 0.0625 C2.4375 0.7225 2.4375 1.3825 2.4375 2.0625 C0.7875 2.0625 -0.8625 2.0625 -2.5625 2.0625 C-0.62995228 4.0870738 1.06908688 5.48355792 3.4375 7.0625 C2.5625 10.9375 2.5625 10.9375 1.4375 12.0625 C-0.56208364 12.10330783 -2.56295254 12.10504356 -4.5625 12.0625 C-4.5625 11.4025 -4.5625 10.7425 -4.5625 10.0625 C-2.5825 10.0625 -0.6025 10.0625 1.4375 10.0625 C-0.49504772 8.0379262 -2.19408688 6.64144208 -4.5625 5.0625 C-3.43829114 0.08386076 -3.43829114 0.08386076 0 0 Z " fill="#656E83" transform="translate(879.5625,446.9375)"/>
<path d="M0 0 C1.2065625 0.0309375 1.2065625 0.0309375 2.4375 0.0625 C2.4375 0.7225 2.4375 1.3825 2.4375 2.0625 C0.7875 2.0625 -0.8625 2.0625 -2.5625 2.0625 C-0.62995228 4.0870738 1.06908688 5.48355792 3.4375 7.0625 C2.5625 10.9375 2.5625 10.9375 1.4375 12.0625 C-0.56208364 12.10330783 -2.56295254 12.10504356 -4.5625 12.0625 C-4.5625 11.4025 -4.5625 10.7425 -4.5625 10.0625 C-2.5825 10.0625 -0.6025 10.0625 1.4375 10.0625 C-0.49504772 8.0379262 -2.19408688 6.64144208 -4.5625 5.0625 C-3.43829114 0.08386076 -3.43829114 0.08386076 0 0 Z " fill="#636D82" transform="translate(1270.5625,446.9375)"/>
<path d="M0 0 C1.2065625 0.0309375 1.2065625 0.0309375 2.4375 0.0625 C2.4375 0.7225 2.4375 1.3825 2.4375 2.0625 C0.7875 2.0625 -0.8625 2.0625 -2.5625 2.0625 C-0.62995228 4.0870738 1.06908688 5.48355792 3.4375 7.0625 C2.5625 10.9375 2.5625 10.9375 1.4375 12.0625 C-0.56208364 12.10330783 -2.56295254 12.10504356 -4.5625 12.0625 C-4.5625 11.4025 -4.5625 10.7425 -4.5625 10.0625 C-2.5825 10.0625 -0.6025 10.0625 1.4375 10.0625 C-0.49504772 8.0379262 -2.19408688 6.64144208 -4.5625 5.0625 C-3.43829114 0.08386076 -3.43829114 0.08386076 0 0 Z " fill="#646D82" transform="translate(752.5625,446.9375)"/>
<path d="M0 0 C0.99 0 1.98 0 3 0 C6 5.75 6 5.75 6 8 C5.34 8 4.68 8 4 8 C3.67 7.34 3.34 6.68 3 6 C2.67 9.3 2.34 12.6 2 16 C1.34 16 0.68 16 0 16 C0 10.72 0 5.44 0 0 Z " fill="#6C657C" transform="translate(571,443)"/>
<path d="M0 0 C0.99 0 1.98 0 3 0 C3.33 0.99 3.66 1.98 4 3 C5.65948148 4.01187895 7.32580562 5.0126546 9 6 C9 6.66 9 7.32 9 8 C7.02 8 5.04 8 3 8 C2.67 8.66 2.34 9.32 2 10 C1.34 10 0.68 10 0 10 C0 6.7 0 3.4 0 0 Z " fill="#C9D9EC" transform="translate(1263,449)"/>
<path d="M0 0 C1.2065625 0.0309375 1.2065625 0.0309375 2.4375 0.0625 C2.4375 0.7225 2.4375 1.3825 2.4375 2.0625 C0.7875 2.0625 -0.8625 2.0625 -2.5625 2.0625 C-0.62995228 4.0870738 1.06908688 5.48355792 3.4375 7.0625 C2.5625 10.9375 2.5625 10.9375 1.4375 12.0625 C-0.22867115 12.10313832 -1.89638095 12.105221 -3.5625 12.0625 C-3.8925 11.4025 -4.2225 10.7425 -4.5625 10.0625 C-2.5825 10.0625 -0.6025 10.0625 1.4375 10.0625 C-0.49504772 8.0379262 -2.19408688 6.64144208 -4.5625 5.0625 C-3.43829114 0.08386076 -3.43829114 0.08386076 0 0 Z " fill="#6B6B77" transform="translate(894.5625,446.9375)"/>
<path d="M0 0 C1.2065625 0.0309375 1.2065625 0.0309375 2.4375 0.0625 C2.4375 0.7225 2.4375 1.3825 2.4375 2.0625 C0.7875 2.0625 -0.8625 2.0625 -2.5625 2.0625 C-0.62995228 4.0870738 1.06908688 5.48355792 3.4375 7.0625 C2.5625 10.9375 2.5625 10.9375 1.4375 12.0625 C-0.22867115 12.10313832 -1.89638095 12.105221 -3.5625 12.0625 C-3.8925 11.4025 -4.2225 10.7425 -4.5625 10.0625 C-2.5825 10.0625 -0.6025 10.0625 1.4375 10.0625 C-0.49504772 8.0379262 -2.19408688 6.64144208 -4.5625 5.0625 C-3.43829114 0.08386076 -3.43829114 0.08386076 0 0 Z " fill="#6B6B77" transform="translate(731.5625,446.9375)"/>
<path d="M0 0 C1.2065625 0.0309375 1.2065625 0.0309375 2.4375 0.0625 C2.4375 2.3725 2.4375 4.6825 2.4375 7.0625 C0.78135343 7.44468767 -0.88707024 7.77645102 -2.5625 8.0625 C-3.5625 7.0625 -3.5625 7.0625 -3.6875 4.0625 C-3.52180824 0.08589776 -3.52180824 0.08589776 0 0 Z " fill="#E1EAFA" transform="translate(1294.5625,448.9375)"/>
<path d="M0 0 C3.3 0 6.6 0 10 0 C10 0.66 10 1.32 10 2 C8.68 2 7.36 2 6 2 C6 5.96 6 9.92 6 14 C5.34 14 4.68 14 4 14 C4 10.04 4 6.08 4 2 C2.68 2 1.36 2 0 2 C0 1.34 0 0.68 0 0 Z " fill="#FFFFFF" transform="translate(914,532)"/>
<path d="M0 0 C0.66 0 1.32 0 2 0 C2 0.99 2 1.98 2 3 C2.99 3 3.98 3 5 3 C5 3.66 5 4.32 5 5 C4.01 5 3.02 5 2 5 C2 7.64 2 10.28 2 13 C2.66 13 3.32 13 4 13 C4 13.66 4 14.32 4 15 C2.68 14.67 1.36 14.34 0 14 C0 11.03 0 8.06 0 5 C-0.66 5 -1.32 5 -2 5 C-2 4.34 -2 3.68 -2 3 C-1.34 3 -0.68 3 0 3 C0 2.01 0 1.02 0 0 Z " fill="#5F708B" transform="translate(770,444)"/>
<path d="M0 0 C1.2684375 0.12375 1.2684375 0.12375 2.5625 0.25 C4.5625 3.25 4.5625 3.25 4.25 6.375 C3.5625 9.25 3.5625 9.25 2.5625 10.25 C0.56291636 10.29080783 -1.43795254 10.29254356 -3.4375 10.25 C-2.4375 8.25 -2.4375 8.25 0.5625 7.25 C0.5625 5.93 0.5625 4.61 0.5625 3.25 C-0.7575 2.59 -2.0775 1.93 -3.4375 1.25 C-2.4375 0.25 -2.4375 0.25 0 0 Z " fill="#EAEBFE" transform="translate(929.4375,535.75)"/>
<path d="M0 0 C0 0.66 0 1.32 0 2 C-1.98 2.66 -3.96 3.32 -6 4 C-5.67 5.65 -5.34 7.3 -5 9 C-3.35 9.33 -1.7 9.66 0 10 C-0.33 10.66 -0.66 11.32 -1 12 C-3.3125 12.25 -3.3125 12.25 -6 12 C-7.875 10.375 -7.875 10.375 -9 8 C-8.875 4.875 -8.875 4.875 -8 2 C-4.77208445 -0.1519437 -3.71599191 -0.20086443 0 0 Z " fill="#6D6F7B" transform="translate(804,447)"/>
<path d="M0 0 C0.33 0.99 0.66 1.98 1 3 C1.99 3 2.98 3 4 3 C4 3.66 4 4.32 4 5 C3.01 5 2.02 5 1 5 C1 7.64 1 10.28 1 13 C1.99 13 2.98 13 4 13 C4 13.66 4 14.32 4 15 C2.35 14.67 0.7 14.34 -1 14 C-1 11.03 -1 8.06 -1 5 C-1.66 5 -2.32 5 -3 5 C-3 4.34 -3 3.68 -3 3 C-2.01 3 -1.02 3 0 3 C0 2.01 0 1.02 0 0 Z " fill="#787576" transform="translate(1083,444)"/>
<path d="M0 0 C2.31 0 4.62 0 7 0 C7 0.66 7 1.32 7 2 C6.01 2.33 5.02 2.66 4 3 C3.67 5.31 3.34 7.62 3 10 C2.01 10 1.02 10 0 10 C0 6.7 0 3.4 0 0 Z " fill="#D9EEFE" transform="translate(1020,536)"/>
<path d="M0 0 C0.66 0 1.32 0 2 0 C2 4.95 2 9.9 2 15 C1.34 15 0.68 15 0 15 C-0.12375 13.329375 -0.12375 13.329375 -0.25 11.625 C-0.57873787 7.94246056 -0.57873787 7.94246056 -3.0625 6.5625 C-3.701875 6.376875 -4.34125 6.19125 -5 6 C-3.68 5.67 -2.36 5.34 -1 5 C-0.67 3.35 -0.34 1.7 0 0 Z " fill="#FCF9FE" transform="translate(1035,531)"/>
<path d="M0 0 C0.33 0.99 0.66 1.98 1 3 C1.99 3.33 2.98 3.66 4 4 C3.01 4 2.02 4 1 4 C1 6.97 1 9.94 1 13 C1.99 13 2.98 13 4 13 C4 13.66 4 14.32 4 15 C2.35 14.67 0.7 14.34 -1 14 C-1 11.03 -1 8.06 -1 5 C-1.66 5 -2.32 5 -3 5 C-3 4.34 -3 3.68 -3 3 C-2.01 3 -1.02 3 0 3 C0 2.01 0 1.02 0 0 Z " fill="#797373" transform="translate(710,444)"/>
<path d="M0 0 C0.66 0 1.32 0 2 0 C2 5.61 2 11.22 2 17 C1.34 17 0.68 17 0 17 C-0.06058594 16.37351562 -0.12117188 15.74703125 -0.18359375 15.1015625 C-0.26738281 14.28429687 -0.35117188 13.46703125 -0.4375 12.625 C-0.51871094 11.81289063 -0.59992188 11.00078125 -0.68359375 10.1640625 C-0.89090114 7.95727195 -0.89090114 7.95727195 -2 6 C-1.34 6 -0.68 6 0 6 C0 4.02 0 2.04 0 0 Z " fill="#5779A1" transform="translate(1343,442)"/>
<path d="M0 0 C0.66 0 1.32 0 2 0 C2 5.61 2 11.22 2 17 C1.34 17 0.68 17 0 17 C-0.06058594 16.37351562 -0.12117187 15.74703125 -0.18359375 15.1015625 C-0.26738281 14.28429687 -0.35117187 13.46703125 -0.4375 12.625 C-0.51871094 11.81289063 -0.59992187 11.00078125 -0.68359375 10.1640625 C-0.89090114 7.95727195 -0.89090114 7.95727195 -2 6 C-1.34 6 -0.68 6 0 6 C0 4.02 0 2.04 0 0 Z " fill="#577AA1" transform="translate(944,442)"/>
<path d="M0 0 C1.99954746 -0.04254356 4.00041636 -0.04080783 6 0 C7 1 7 1 7.09765625 3.06640625 C7.08605469 3.89011719 7.07445312 4.71382812 7.0625 5.5625 C7.05347656 6.38878906 7.04445313 7.21507812 7.03515625 8.06640625 C7.02355469 8.70449219 7.01195312 9.34257813 7 10 C6.34 10 5.68 10 5 10 C5 8.35 5 6.7 5 5 C4.34 4.67 3.68 4.34 3 4 C3.33 3.34 3.66 2.68 4 2 C2.35 2.33 0.7 2.66 -1 3 C-0.67 2.01 -0.34 1.02 0 0 Z " fill="#ECEDFE" transform="translate(1011,536)"/>
<path d="M0 0 C1.66611905 -0.042721 3.33382885 -0.04063832 5 0 C6 1 6 1 6.1875 4.4375 C6 8 6 8 4 10 C2.68 10 1.36 10 0 10 C0 9.34 0 8.68 0 8 C0.99 7.67 1.98 7.34 3 7 C3 5.68 3 4.36 3 3 C1.68 3 0.36 3 -1 3 C-0.67 2.01 -0.34 1.02 0 0 Z " fill="#F3F2FE" transform="translate(990,536)"/>
<path d="M0 0 C0.66 0 1.32 0 2 0 C2 5.61 2 11.22 2 17 C1.34 17 0.68 17 0 17 C-1.22329074 13.33012779 -0.88021006 10.66032178 -0.5625 6.8125 C-0.46066406 5.54019531 -0.35882812 4.26789063 -0.25390625 2.95703125 C-0.17011719 1.98121094 -0.08632812 1.00539063 0 0 Z " fill="#546E94" transform="translate(1250,442)"/>
<path d="M0 0 C2.9719385 1.12451727 5.33440687 2.22293791 8 4 C8 4.66 8 5.32 8 6 C6.824375 6.2165625 6.824375 6.2165625 5.625 6.4375 C3.03578982 6.87798925 3.03578982 6.87798925 1 8 C0.67 5.36 0.34 2.72 0 0 Z " fill="#E5E8F0" transform="translate(888,451)"/>
<path d="M0 0 C2.9719385 1.12451727 5.33440687 2.22293791 8 4 C8 4.66 8 5.32 8 6 C6.824375 6.2165625 6.824375 6.2165625 5.625 6.4375 C3.03578982 6.87798925 3.03578982 6.87798925 1 8 C0.67 5.36 0.34 2.72 0 0 Z " fill="#E5E9F0" transform="translate(725,451)"/>
<path d="M0 0 C2.375 -0.125 2.375 -0.125 5 0 C7 2 7 2 7.1953125 4.3828125 C7.17210937 5.28773438 7.14890625 6.19265625 7.125 7.125 C7.10695313 8.03507812 7.08890625 8.94515625 7.0703125 9.8828125 C7.04710937 10.58148438 7.02390625 11.28015625 7 12 C6.34 12 5.68 12 5 12 C3.768606 8.30581799 4.35567236 5.7943739 5 2 C3.02 2 1.04 2 -1 2 C-0.67 1.34 -0.34 0.68 0 0 Z " fill="#5F5F7B" transform="translate(786,447)"/>
<path d="M0 0 C1.98 0 3.96 0 6 0 C6 0.66 6 1.32 6 2 C5.01 2.66 4.02 3.32 3 4 C2.42251197 5.96361864 2.42251197 5.96361864 2.3125 8.125 C2.209375 9.40375 2.10625 10.6825 2 12 C1.34 12 0.68 12 0 12 C0 8.04 0 4.08 0 0 Z " fill="#777073" transform="translate(1134,447)"/>
<path d="M0 0 C1.98 0 3.96 0 6 0 C6 0.66 6 1.32 6 2 C5.01 2.66 4.02 3.32 3 4 C2.42251197 5.96361864 2.42251197 5.96361864 2.3125 8.125 C2.209375 9.40375 2.10625 10.6825 2 12 C1.34 12 0.68 12 0 12 C0 8.04 0 4.08 0 0 Z " fill="#6E677C" transform="translate(968,447)"/>
<path d="M0 0 C1 1 1 1 1.09765625 3.28515625 C1.08605469 4.20167969 1.07445312 5.11820312 1.0625 6.0625 C1.05347656 6.98160156 1.04445313 7.90070313 1.03515625 8.84765625 C1.02355469 9.55792969 1.01195312 10.26820313 1 11 C0.34 11 -0.32 11 -1 11 C-1.33 8.03 -1.66 5.06 -2 2 C-3.65 2 -5.3 2 -7 2 C-7 1.34 -7 0.68 -7 0 C-4.31633121 -1.3418344 -2.84719317 -0.73004953 0 0 Z " fill="#5C708D" transform="translate(1285,448)"/>
<path d="M0 0 C1.98 0 3.96 0 6 0 C6 0.66 6 1.32 6 2 C5.01 2.33 4.02 2.66 3 3 C2.67 5.97 2.34 8.94 2 12 C1.34 12 0.68 12 0 12 C0 8.04 0 4.08 0 0 Z " fill="#5B6A8A" transform="translate(1327,447)"/>
<path d="M0 0 C1.98 0 3.96 0 6 0 C6 0.66 6 1.32 6 2 C5.01 2.33 4.02 2.66 3 3 C2.67 5.97 2.34 8.94 2 12 C1.34 12 0.68 12 0 12 C0 8.04 0 4.08 0 0 Z " fill="#5B6B8A" transform="translate(777,447)"/>
<path d="M0 0 C1.98 0 3.96 0 6 0 C6 0.66 6 1.32 6 2 C5.01 2.33 4.02 2.66 3 3 C2.67 5.97 2.34 8.94 2 12 C1.34 12 0.68 12 0 12 C0 8.04 0 4.08 0 0 Z " fill="#5B6B8A" transform="translate(695,447)"/>
<path d="M0 0 C0.66 0.33 1.32 0.66 2 1 C1.484375 1.4125 0.96875 1.825 0.4375 2.25 C-1.22969525 3.87337657 -1.22969525 3.87337657 -0.875 5.9375 C0.11579147 8.27293703 1.3939811 10.04484656 3 12 C-0.79588866 11.45773019 -2.47211993 9.79872437 -5 7 C-3.70700306 4.11562221 -2.34058637 2.12780579 0 0 Z " fill="#646C81" transform="translate(813,447)"/>
<path d="M0 0 C0.66 0.33 1.32 0.66 2 1 C1.484375 1.4125 0.96875 1.825 0.4375 2.25 C-1.22969525 3.87337657 -1.22969525 3.87337657 -0.875 5.9375 C0.11579147 8.27293703 1.3939811 10.04484656 3 12 C-0.79588866 11.45773019 -2.47211993 9.79872437 -5 7 C-3.70700306 4.11562221 -2.34058637 2.12780579 0 0 Z " fill="#646C81" transform="translate(744,447)"/>
<path d="M0 0 C0.99 0.33 1.98 0.66 3 1 C3.33 2.65 3.66 4.3 4 6 C4.66 6 5.32 6 6 6 C6 7.98 6 9.96 6 12 C5.01 12 4.02 12 3 12 C2.01 8.04 1.02 4.08 0 0 Z " fill="#797480" transform="translate(1173,447)"/>
<path d="M0 0 C1.32 0 2.64 0 4 0 C4.33 1.65 4.66 3.3 5 5 C3.35 5.33 1.7 5.66 0 6 C-1.125 2.25 -1.125 2.25 0 0 Z " fill="#3673FC" transform="translate(1001,538)"/>
<path d="M0 0 C1.32 0 2.64 0 4 0 C4.33 1.65 4.66 3.3 5 5 C3.35 5.33 1.7 5.66 0 6 C-1.125 2.25 -1.125 2.25 0 0 Z " fill="#3673FC" transform="translate(900,538)"/>
<path d="M0 0 C1.32 0.66 2.64 1.32 4 2 C4 4.64 4 7.28 4 10 C3.01 10 2.02 10 1 10 C1 7.36 1 4.72 1 2 C0.34 1.67 -0.32 1.34 -1 1 C-0.67 0.67 -0.34 0.34 0 0 Z " fill="#E6EBFE" transform="translate(980,536)"/>
<path d="M0 0 C0.33 0 0.66 0 1 0 C1.09765625 6.15234375 1.09765625 6.15234375 1 8 C0 9 0 9 -3.5625 9.0625 C-4.696875 9.041875 -5.83125 9.02125 -7 9 C-7 6.36 -7 3.72 -7 1 C-6.67 1 -6.34 1 -6 1 C-5.67 2.65 -5.34 4.3 -5 6 C-3.68 6 -2.36 6 -1 6 C-0.67 4.02 -0.34 2.04 0 0 Z " fill="#6F7889" transform="translate(1297,450)"/>
<path d="M0 0 C0 1.98 0 3.96 0 6 C-2.9375 5.1875 -2.9375 5.1875 -6 4 C-6.33 3.01 -6.66 2.02 -7 1 C-2.25 0 -2.25 0 0 0 Z " fill="#DCE9FD" transform="translate(1275,448)"/>
<path d="M0 0 C-0.33 0.66 -0.66 1.32 -1 2 C-2.2375 2.37125 -2.2375 2.37125 -3.5 2.75 C-4.7375 3.36875 -4.7375 3.36875 -6 4 C-6.89830839 7.05272465 -6.89830839 7.05272465 -7 10 C-9 8 -9 8 -9.375 5.5625 C-9 3 -9 3 -7.3125 1.1875 C-4.65769564 -0.17577792 -2.94425817 -0.24535485 0 0 Z " fill="#777579" transform="translate(1310,447)"/>
<path d="M0 0 C1.66611905 -0.042721 3.33382885 -0.04063832 5 0 C6 1 6 1 6.09765625 3.50390625 C6.08605469 4.51324219 6.07445312 5.52257812 6.0625 6.5625 C6.05347656 7.57441406 6.04445313 8.58632813 6.03515625 9.62890625 C6.02355469 10.41136719 6.01195312 11.19382812 6 12 C4 9 4 9 4.375 6.8125 C4.58125 6.214375 4.7875 5.61625 5 5 C4.34 4.67 3.68 4.34 3 4 C3.33 3.34 3.66 2.68 4 2 C2.35 2 0.7 2 -1 2 C-0.67 1.34 -0.34 0.68 0 0 Z " fill="#5C6473" transform="translate(991,447)"/>
<path d="M0 0 C1.66611905 -0.042721 3.33382885 -0.04063832 5 0 C6 1 6 1 6.09765625 3.50390625 C6.08605469 4.51324219 6.07445312 5.52257812 6.0625 6.5625 C6.05347656 7.57441406 6.04445313 8.58632813 6.03515625 9.62890625 C6.02355469 10.41136719 6.01195312 11.19382812 6 12 C4 9 4 9 4.375 6.8125 C4.58125 6.214375 4.7875 5.61625 5 5 C4.34 4.67 3.68 4.34 3 4 C3.33 3.34 3.66 2.68 4 2 C2.35 2 0.7 2 -1 2 C-0.67 1.34 -0.34 0.68 0 0 Z " fill="#5C6573" transform="translate(593,447)"/>
<path d="M0 0 C1.98 0.495 1.98 0.495 4 1 C3.67 2.65 3.34 4.3 3 6 C1.68 5.67 0.36 5.34 -1 5 C-0.67 3.35 -0.34 1.7 0 0 Z " fill="#2373FC" transform="translate(1031,538)"/>
<path d="M0 0 C1.98 0.495 1.98 0.495 4 1 C3.67 2.65 3.34 4.3 3 6 C1.68 5.67 0.36 5.34 -1 5 C-0.67 3.35 -0.34 1.7 0 0 Z " fill="#2771FC" transform="translate(990,538)"/>
<path d="M0 0 C1.98 0.495 1.98 0.495 4 1 C3.67 2.65 3.34 4.3 3 6 C1.68 5.67 0.36 5.34 -1 5 C-0.67 3.35 -0.34 1.7 0 0 Z " fill="#1B63FC" transform="translate(927,538)"/>
<path d="M0 0 C0.66 0 1.32 0 2 0 C2.33 2.64 2.66 5.28 3 8 C3.99 8 4.98 8 6 8 C5.67 9.32 5.34 10.64 5 12 C4.34 12 3.68 12 3 12 C2.49440092 10.56445975 1.9957251 9.1264798 1.5 7.6875 C1.2215625 6.88699219 0.943125 6.08648437 0.65625 5.26171875 C0 3 0 3 0 0 Z " fill="#656A83" transform="translate(1059,447)"/>
<path d="M0 0 C1.66611905 -0.042721 3.33382885 -0.04063832 5 0 C6 1 6 1 6.09765625 3.50390625 C6.08605469 4.51324219 6.07445312 5.52257812 6.0625 6.5625 C6.05347656 7.57441406 6.04445313 8.58632813 6.03515625 9.62890625 C6.02355469 10.41136719 6.01195312 11.19382812 6 12 C5.67 12 5.34 12 5 12 C5 9.69 5 7.38 5 5 C4.34 4.67 3.68 4.34 3 4 C3.33 3.34 3.66 2.68 4 2 C2.35 2 0.7 2 -1 2 C-0.67 1.34 -0.34 0.68 0 0 Z " fill="#5C6573" transform="translate(1257,447)"/>
<path d="M0 0 C1.2065625 0.0309375 1.2065625 0.0309375 2.4375 0.0625 C2.4375 0.7225 2.4375 1.3825 2.4375 2.0625 C0.7875 2.0625 -0.8625 2.0625 -2.5625 2.0625 C-1.5725 3.3825 -0.5825 4.7025 0.4375 6.0625 C-0.5525 6.5575 -0.5525 6.5575 -1.5625 7.0625 C-2.5525 6.4025 -3.5425 5.7425 -4.5625 5.0625 C-3.43829114 0.08386076 -3.43829114 0.08386076 0 0 Z " fill="#6B6B77" transform="translate(879.5625,446.9375)"/>
<path d="M0 0 C0.33 0 0.66 0 1 0 C1.33663062 3.70293685 1.47736015 5.39534381 -0.875 8.375 C-3 10 -3 10 -5 10 C-5 9.01 -5 8.02 -5 7 C-4.34 7 -3.68 7 -3 7 C-3 6.34 -3 5.68 -3 5 C-2.34 4.67 -1.68 4.34 -1 4 C-0.34786708 1.97536745 -0.34786708 1.97536745 0 0 Z " fill="#DEDAFD" transform="translate(953,536)"/>
<path d="M0 0 C1.32 0.33 2.64 0.66 4 1 C3.125 4.875 3.125 4.875 2 6 C0.33382885 6.04063832 -1.33388095 6.042721 -3 6 C-3.33 5.34 -3.66 4.68 -4 4 C-2.02 4 -0.04 4 2 4 C1.34 2.68 0.68 1.36 0 0 Z " fill="#606B82" transform="translate(894,453)"/>
<path d="M0 0 C1.32 0.33 2.64 0.66 4 1 C3.125 4.875 3.125 4.875 2 6 C0.33382885 6.04063832 -1.33388095 6.042721 -3 6 C-3.33 5.34 -3.66 4.68 -4 4 C-2.02 4 -0.04 4 2 4 C1.34 2.68 0.68 1.36 0 0 Z " fill="#606C82" transform="translate(731,453)"/>
<path d="M0 0 C2.66666667 0.66666667 5.33333333 1.33333333 8 2 C8 2.66 8 3.32 8 4 C6.02 4 4.04 4 2 4 C1.34 2.68 0.68 1.36 0 0 Z " fill="#EFF3FE" transform="translate(884,542)"/>
<path d="M0 0 C2.97 0.495 2.97 0.495 6 1 C6 1.66 6 2.32 6 3 C4.02 3.33 2.04 3.66 0 4 C-0.33 5.32 -0.66 6.64 -1 8 C-1.125 2.25 -1.125 2.25 0 0 Z " fill="#1D7AFC" transform="translate(955,537)"/>
<path d="M0 0 C2.0625 0.4375 2.0625 0.4375 4 1 C4 2.98 4 4.96 4 7 C3.01 7.495 3.01 7.495 2 8 C1.814375 6.824375 1.814375 6.824375 1.625 5.625 C1.20882007 2.85942178 1.20882007 2.85942178 -1 1 C-0.67 0.67 -0.34 0.34 0 0 Z " fill="#ECF3FE" transform="translate(949,533)"/>
<path d="M0 0 C1.65 0 3.3 0 5 0 C4.67 1.32 4.34 2.64 4 4 C2.68 4 1.36 4 0 4 C0 2.68 0 1.36 0 0 Z " fill="#DEDFE5" transform="translate(1317,453)"/>
<path d="M0 0 C1.32 0 2.64 0 4 0 C4 1.32 4 2.64 4 4 C2.35 4 0.7 4 -1 4 C-0.67 2.68 -0.34 1.36 0 0 Z " fill="#D2E1F6" transform="translate(1257,453)"/>
<path d="M0 0 C1.32 0 2.64 0 4 0 C4 1.32 4 2.64 4 4 C2.35 4 0.7 4 -1 4 C-0.67 2.68 -0.34 1.36 0 0 Z " fill="#D3E2F6" transform="translate(991,453)"/>
<path d="M0 0 C1.65 0 3.3 0 5 0 C4.67 1.32 4.34 2.64 4 4 C2.68 4 1.36 4 0 4 C0 2.68 0 1.36 0 0 Z " fill="#DFE0E5" transform="translate(913,453)"/>
<path d="M0 0 C1.65 0 3.3 0 5 0 C4.67 1.32 4.34 2.64 4 4 C2.68 4 1.36 4 0 4 C0 2.68 0 1.36 0 0 Z " fill="#E0E1E5" transform="translate(718,453)"/>
<path d="M0 0 C1.32 0 2.64 0 4 0 C4 1.32 4 2.64 4 4 C2.35 4 0.7 4 -1 4 C-0.67 2.68 -0.34 1.36 0 0 Z " fill="#D4E3F6" transform="translate(593,453)"/>
<path d="M0 0 C0.33 0 0.66 0 1 0 C1.2475 1.093125 1.495 2.18625 1.75 3.3125 C3.02002851 7.05908409 3.65756352 8.10595266 7 10 C1.125 9.125 1.125 9.125 0 8 C-0.14115161 5.32941149 -0.04247107 2.67567762 0 0 Z " fill="#656471" transform="translate(1108,449)"/>
<path d="M0 0 C1.32 0 2.64 0 4 0 C3.67 1.32 3.34 2.64 3 4 C1.68 4 0.36 4 -1 4 C-0.67 2.68 -0.34 1.36 0 0 Z " fill="#DEEBF7" transform="translate(850,453)"/>
<path d="M0 0 C1.32 0 2.64 0 4 0 C3.67 1.32 3.34 2.64 3 4 C1.68 4 0.36 4 -1 4 C-0.67 2.68 -0.34 1.36 0 0 Z " fill="#DEEBF7" transform="translate(826,453)"/>
<path d="M0 0 C1.32 0 2.64 0 4 0 C3.67 1.32 3.34 2.64 3 4 C1.68 4 0.36 4 -1 4 C-0.67 2.68 -0.34 1.36 0 0 Z " fill="#E3EBF1" transform="translate(787,453)"/>
<path d="M0 0 C0.66 0 1.32 0 2 0 C2.25 2.3125 2.25 2.3125 2 5 C0 6.8125 0 6.8125 -2 8 C-1.125 1.125 -1.125 1.125 0 0 Z " fill="#7C727A" transform="translate(1066,447)"/>
<path d="M0 0 C0.66 0.33 1.32 0.66 2 1 C1.01 2.98 0.02 4.96 -1 7 C-2.32 7 -3.64 7 -5 7 C-5 6.34 -5 5.68 -5 5 C-4.360625 4.731875 -3.72125 4.46375 -3.0625 4.1875 C-0.66868314 3.11332248 -0.66868314 3.11332248 0 0 Z " fill="#6A6F7F" transform="translate(868,457)"/>
</svg>
